<?xml version="1.0" encoding="utf-8"?>
<!-- Generator: Adobe Illustrator 24.0.0, SVG Export Plug-In . SVG Version: 6.00 Build 0)  -->
<svg version="1.1" id="Layer_1" xmlns="http://www.w3.org/2000/svg" xmlns:xlink="http://www.w3.org/1999/xlink" x="0px" y="0px"
	 width="592px" height="417px" viewBox="0 0 592 417" enable-background="new 0 0 592 417" xml:space="preserve">
<rect x="447" y="329" fill="#4589FF" width="45" height="2"/>
<rect x="224" y="50" fill="#4589FF" width="24" height="1"/>
<rect x="90" y="188.5" fill="#4589FF" width="402" height="2"/>
<rect x="447" y="49.5" fill="#4589FF" width="46" height="2"/>
<rect x="447" y="50" fill="#4589FF" width="2" height="279"/>
<rect x="192" y="106" fill="#4589FF" width="1" height="50"/>
<rect x="192" y="82" fill="#4589FF" width="1" height="5"/>
<rect x="324" y="221" fill="#4589FF" width="1" height="5"/>
<rect x="324" y="51" fill="#4589FF" width="1" height="107"/>
<rect x="324" y="245" fill="#4589FF" width="1" height="85"/>
<rect x="312" y="50" fill="#4589FF" width="24" height="1"/>
<rect x="312" y="329" fill="#4589FF" width="25" height="1"/>
<circle fill="#FFFFFF" stroke="#DDE1E6" stroke-miterlimit="10" cx="324" cy="189" r="32"/>
<g>
	<g>
		<g id="g3-2_12_" transform="scale(1.7500001,1.7500001)">
			<g>
				<path fill="#FD783D" d="M194.45,109.8c-1.06,4.51-4.84,7.78-9.54,7.78c-3.18,0-5.75-1.4-7.42-3.73l5.15-5.29l0.61,0.62
					l-0.61-0.62l0,0l0.76,0.93l1.21-4.2l-4.09,1.24l0.76,0.78l-1.21,1.4l-3.48,3.58c-0.61-1.09-1.06-2.33-1.21-3.89l-1.51-2.18
					c-0.15,0.47-0.15,0.93-0.15,1.55c0,6.38,5.15,11.67,11.35,11.67c5,0,9.23-3.27,10.75-7.78L194.45,109.8z"/>
				<polyline fill="#FDA578" points="176.44,112.29 181.28,107.31 180.52,106.53 184.61,105.29 177.5,112.44 				"/>
			</g>
			<g>
				<path fill="#FDA578" d="M184.91,119.29c5,0,9.23-3.27,10.75-7.78l-0.76-0.93c-1.21,4.51-5.3,7.94-9.99,7.94
					c-5.75,0-10.44-4.82-10.44-10.74c0-0.16,0-0.31,0-0.47l-0.61-1.09c-0.15,0.47-0.15,0.93-0.15,1.55
					C173.71,114.15,178.71,119.29,184.91,119.29z"/>
				<line fill="none" x1="176.44" y1="112.44" x2="177.5" y2="112.75"/>
			</g>
		</g>
		<g id="g3-2_11_" transform="scale(1.7500001,1.7500001)">
			<g>
				<path fill="#1CB3A0" d="M175.68,106.07c1.06-4.51,4.84-7.78,9.54-7.78c3.18,0,5.75,1.4,7.42,3.73l-5.15,5.29l-0.45-0.62
					l0.61,0.62l0,0l-0.91-0.93l-1.21,4.2l4.09-1.24l-0.76-0.78l1.36-1.4l3.48-3.58c0.61,1.09,0.91,2.49,1.06,3.89l1.51,2.18
					c0.15-0.47,0.15-0.93,0.15-1.4c0-6.38-5.15-11.67-11.35-11.67c-4.84,0-9.08,3.27-10.6,7.78L175.68,106.07z"/>
				<polyline fill="#4AD5C3" points="192.63,102.03 187.49,107.31 186.73,106.38 185.52,110.58 192.48,103.42 				"/>
			</g>
			<g>
				<path fill="#4AD5C3" d="M185.22,96.57c-5,0-9.23,3.27-10.75,7.78l0.76,0.93c1.21-4.51,5.3-7.94,9.99-7.94
					c5.75,0,10.44,4.82,10.44,10.74c0,0.16,0,0.31,0,0.47l0.76,1.09c0.15-0.47,0.15-0.93,0.15-1.4
					C196.42,101.71,191.42,96.57,185.22,96.57z"/>
				<line fill="none" x1="193.69" y1="103.42" x2="192.63" y2="103.11"/>
			</g>
		</g>
	</g>
</g>
<circle fill="#FFFFFF" stroke="#DDE1E6" stroke-miterlimit="10" cx="192.18" cy="50" r="32"/>
<g>
	<g>
		<g id="g3-2_10_" transform="scale(1.7500001,1.7500001)">
			<g>
				<path fill="#FD783D" d="M119.13,30.37c-1.06,4.52-4.84,7.78-9.54,7.78c-3.18,0-5.75-1.4-7.42-3.73l5.15-5.3l0.61,0.62
					l-0.61-0.62l0,0l0.76,0.93l1.21-4.2l-4.09,1.24l0.76,0.78l-1.21,1.4l-3.48,3.58c-0.61-1.09-1.06-2.33-1.21-3.89l-1.51-2.18
					c-0.15,0.47-0.15,0.93-0.15,1.55c0,6.39,5.15,11.67,11.35,11.67c5,0,9.23-3.27,10.75-7.78L119.13,30.37z"/>
				<polyline fill="#FDA578" points="101.11,32.86 105.96,27.88 105.2,27.1 109.29,25.85 102.17,33.02 				"/>
			</g>
			<g>
				<path fill="#FDA578" d="M109.59,39.87c5,0,9.23-3.27,10.75-7.78l-0.76-0.93c-1.21,4.52-5.3,7.94-9.99,7.94
					c-5.75,0-10.44-4.83-10.44-10.74c0-0.16,0-0.31,0-0.47l-0.61-1.09c-0.15,0.47-0.15,0.93-0.15,1.55
					C98.39,34.73,103.38,39.87,109.59,39.87z"/>
				<line fill="none" x1="101.11" y1="33.02" x2="102.17" y2="33.33"/>
			</g>
		</g>
		<g id="g3-2_9_" transform="scale(1.7500001,1.7500001)">
			<g>
				<path fill="#1CB3A0" d="M100.36,26.63c1.06-4.52,4.84-7.78,9.54-7.78c3.18,0,5.75,1.4,7.42,3.73l-5.15,5.3l-0.45-0.62l0.61,0.62
					l0,0l-0.91-0.93l-1.21,4.2l4.09-1.24l-0.76-0.78l1.36-1.4l3.48-3.58c0.61,1.09,0.91,2.49,1.06,3.89l1.51,2.18
					c0.15-0.47,0.15-0.93,0.15-1.4c0-6.39-5.15-11.67-11.35-11.67c-4.84,0-9.08,3.27-10.6,7.78L100.36,26.63z"/>
				<polyline fill="#4AD5C3" points="117.31,22.59 112.16,27.88 111.41,26.94 110.2,31.15 117.16,23.99 				"/>
			</g>
			<g>
				<path fill="#4AD5C3" d="M109.89,17.14c-5,0-9.23,3.27-10.75,7.78l0.76,0.93c1.21-4.52,5.3-7.94,9.99-7.94
					c5.75,0,10.44,4.83,10.44,10.74c0,0.16,0,0.31,0,0.47l0.76,1.09c0.15-0.47,0.15-0.93,0.15-1.4
					C121.1,22.28,116.1,17.14,109.89,17.14z"/>
				<line fill="none" x1="118.37" y1="23.99" x2="117.31" y2="23.68"/>
			</g>
		</g>
	</g>
</g>
<circle fill="#FFFFFF" stroke="#DDE1E6" stroke-miterlimit="10" cx="192.18" cy="189" r="32"/>
<circle fill="#FFFFFF" stroke="#DDE1E6" stroke-miterlimit="10" cx="527" cy="189" r="32"/>
<circle fill="#FFFFFF" stroke="#DDE1E6" stroke-miterlimit="10" cx="280" cy="50" r="32"/>
<g>
	<path fill="#2E3737" d="M283.86,61.08l-7.59,0.5c-0.7,0.04-1.25-0.45-1.35-1.12l0,0c-0.04-0.68,0.46-1.22,1.17-1.3l7.59-0.5
		c0.7-0.04,1.25,0.45,1.35,1.13l0,0C285.07,60.45,284.55,61.04,283.86,61.08z"/>
	<path fill="#2E3737" d="M283.86,64.64l-7.59,0.5c-0.7,0.04-1.25-0.45-1.35-1.13l0,0c-0.04-0.68,0.46-1.22,1.17-1.3l7.63-0.45
		c0.7-0.04,1.25,0.45,1.35,1.12l0,0C285.07,64.01,284.55,64.59,283.86,64.64z"/>
	<g>
		<path fill="#586565" d="M276.09,66.35c-0.04,0-0.1,0-0.14,0C276.19,68.43,277.9,70,280,70c2.23,0,4.05-1.84,4.05-4.15
			c0-0.04,0-0.04,0-0.09L276.09,66.35z"/>
	</g>
	<g>
		<path fill="#FCE77F" d="M292,41.62c0-6.4-5.4-11.62-12-11.62s-12,5.23-12,11.62c0,2.97,1.17,5.68,3.02,7.7
			c1.86,2.3,2.79,3.02,2.79,6.84v0.27c0,0.54,0.46,0.99,1.03,0.99h10.23c0.56,0,1.03-0.45,1.03-0.99v-0.23
			c0-4.01,1.03-4.59,3.12-7.21h0.04C290.97,47.03,292,44.42,292,41.62z"/>
		<path fill="#FCE77F" d="M289.3,49.01l0.14-0.23C289.4,48.87,289.35,48.97,289.3,49.01L289.3,49.01z"/>
	</g>
	<path fill="#FCD432" d="M292,41.62c0-6.4-5.4-11.62-12-11.62v27.44h5.12c0.56,0,1.03-0.45,1.03-0.99v-0.23
		c0-4.01,1.03-4.59,3.12-7.21l0,0C290.97,47.03,292,44.42,292,41.62z"/>
	<path fill="#030506" d="M285.02,63.56v-0.41c-0.04-0.54-0.56-0.99-1.11-0.95L280,62.48v2.44l4.09-0.27
		C284.65,64.59,285.07,64.1,285.02,63.56z"/>
	<path fill="#030506" d="M285.02,60l-0.04-0.36c-0.04-0.54-0.56-0.99-1.11-0.95l-3.91,0.27v2.39l4.09-0.27
		C284.65,61.04,285.07,60.54,285.02,60z"/>
	<path fill="#3D4747" d="M284.05,65.81L280,66.08V70C282.23,70,284.05,68.16,284.05,65.81C284.05,65.85,284.05,65.85,284.05,65.81z"
		/>
	<ellipse fill="#975AD1" cx="280" cy="41.8" rx="7.45" ry="7.21"/>
	<path fill="#FC42A0" d="M280,34.55v14.46c4.14,0,7.45-3.24,7.45-7.21S284.14,34.55,280,34.55z"/>
	<path fill="#64BC46" d="M285.72,46.44c1.49-1.71,2-3.88,1.63-5.9L280,41.8l-4.79,5.5C278.37,49.86,283.07,49.5,285.72,46.44z"/>
</g>
<circle fill="#FFFFFF" stroke="#DDE1E6" stroke-miterlimit="10" cx="368" cy="50" r="32"/>
<g>
	<path fill="#2E3737" d="M371.86,61.08l-7.59,0.5c-0.7,0.04-1.25-0.45-1.35-1.12l0,0c-0.04-0.68,0.46-1.22,1.17-1.3l7.59-0.5
		c0.7-0.04,1.25,0.45,1.35,1.13l0,0C373.07,60.45,372.55,61.04,371.86,61.08z"/>
	<path fill="#2E3737" d="M371.86,64.64l-7.59,0.5c-0.7,0.04-1.25-0.45-1.35-1.13l0,0c-0.04-0.68,0.46-1.22,1.17-1.3l7.63-0.45
		c0.7-0.04,1.25,0.45,1.35,1.12l0,0C373.07,64.01,372.55,64.59,371.86,64.64z"/>
	<g>
		<path fill="#586565" d="M364.09,66.35c-0.04,0-0.1,0-0.14,0C364.19,68.43,365.9,70,368,70c2.23,0,4.05-1.84,4.05-4.15
			c0-0.04,0-0.04,0-0.09L364.09,66.35z"/>
	</g>
	<g>
		<path fill="#FCE77F" d="M380,41.62c0-6.4-5.4-11.62-12-11.62s-12,5.23-12,11.62c0,2.97,1.17,5.68,3.02,7.7
			c1.86,2.3,2.79,3.02,2.79,6.84v0.27c0,0.54,0.46,0.99,1.03,0.99h10.23c0.56,0,1.03-0.45,1.03-0.99v-0.23
			c0-4.01,1.03-4.59,3.12-7.21h0.04C378.97,47.03,380,44.42,380,41.62z"/>
		<path fill="#FCE77F" d="M377.3,49.01l0.14-0.23C377.4,48.87,377.35,48.97,377.3,49.01L377.3,49.01z"/>
	</g>
	<path fill="#FCD432" d="M380,41.62c0-6.4-5.4-11.62-12-11.62v27.44h5.12c0.56,0,1.03-0.45,1.03-0.99v-0.23
		c0-4.01,1.03-4.59,3.12-7.21l0,0C378.97,47.03,380,44.42,380,41.62z"/>
	<path fill="#030506" d="M373.02,63.56v-0.41c-0.04-0.54-0.56-0.99-1.11-0.95L368,62.48v2.44l4.09-0.27
		C372.65,64.59,373.07,64.1,373.02,63.56z"/>
	<path fill="#030506" d="M373.02,60l-0.04-0.36c-0.04-0.54-0.56-0.99-1.11-0.95l-3.91,0.27v2.39l4.09-0.27
		C372.65,61.04,373.07,60.54,373.02,60z"/>
	<path fill="#3D4747" d="M372.05,65.81L368,66.08V70C370.23,70,372.05,68.16,372.05,65.81C372.05,65.85,372.05,65.85,372.05,65.81z"
		/>
	<ellipse fill="#975AD1" cx="368" cy="41.8" rx="7.45" ry="7.21"/>
	<path fill="#FC42A0" d="M368,34.55v14.46c4.14,0,7.45-3.24,7.45-7.21S372.14,34.55,368,34.55z"/>
	<path fill="#64BC46" d="M373.72,46.44c1.49-1.71,2-3.88,1.63-5.9L368,41.8l-4.79,5.5C366.37,49.86,371.06,49.5,373.72,46.44z"/>
</g>
<text transform="matrix(1 0 0 1 156.437 100)" font-family="'IBMPlexSans'" font-size="14px">PR Pipeline</text>
<text transform="matrix(1 0 0 1 478.743 238.9993)" font-family="'IBMPlexSans'" font-size="14px">Inventory Repo</text>
<text transform="matrix(1 0 0 1 289.8335 238.9996)" font-family="'IBMPlexSans'" font-size="14px">CI Pipeline</text>
<text transform="matrix(1 0 0 1 158.1588 239.52)" font-family="'IBMPlexSans'" font-size="14px">Code Repo</text>
<text transform="matrix(1 0 0 1 341.9954 100.0002)"><tspan x="0" y="0" font-family="'IBMPlexSans'" font-size="14px">DevOps </tspan><tspan x="0" y="16.8" font-family="'IBMPlexSans'" font-size="14px">Insights</tspan></text>
<text transform="matrix(1 0 0 1 498.5247 100.0002)" font-family="'IBMPlexSans'" font-size="14px">Evidence</text>
<circle fill="#FFFFFF" stroke="#DDE1E6" stroke-miterlimit="10" cx="527" cy="330" r="32"/>
<text transform="matrix(1 0 0 1 500.3167 380.0002)" font-family="'IBMPlexSans'" font-size="14px">Artifacts</text>
<circle fill="#FFFFFF" stroke="#DDE1E6" stroke-miterlimit="10" cx="369" cy="330" r="32"/>
<text transform="matrix(1 0 0 1 341.7981 380.0002)"><tspan x="0" y="0" font-family="'IBMPlexSans'" font-size="14px">Secrets</tspan><tspan x="0" y="16.8" font-family="'IBMPlexSans'" font-size="14px">Manager</tspan></text>
<circle fill="#FFFFFF" stroke="#DDE1E6" stroke-miterlimit="10" cx="280" cy="330" r="32"/>
<text transform="matrix(1 0 0 1 243.9084 380.0002)" font-family="'IBMPlexSans'" font-size="14px">Key Protect</text>
<text transform="matrix(1 0 0 1 266.6859 99.9998)" font-family="'IBMPlexSans'" font-size="14px">CRA</text>
<g>
	<g>
		<defs>
			<rect id="SVGID_1_" x="172.18" y="169" width="40" height="40"/>
		</defs>
		<clipPath id="SVGID_2_">
			<use xlink:href="#SVGID_1_"  overflow="visible"/>
		</clipPath>
		<g clip-path="url(#SVGID_2_)">
			<defs>
				<rect id="SVGID_3_" x="172.18" y="169" width="40" height="40"/>
			</defs>
			<clipPath id="SVGID_4_">
				<use xlink:href="#SVGID_3_"  overflow="visible"/>
			</clipPath>
			<path clip-path="url(#SVGID_4_)" fill="#243238" d="M184.07,190.87c-0.08-0.32-0.13-0.65-0.17-0.98
				c-0.01-0.06-0.01-0.12-0.01-0.18v-0.02c-0.07-0.85-0.01-1.71,0.18-2.57c0-0.01,0.01-0.01,0.01-0.03
				c0.01-0.05,0.02-0.11,0.04-0.16c0.01-0.03,0.01-0.06,0.02-0.09c0.01-0.03,0.01-0.06,0.02-0.09c0.02-0.05,0.03-0.11,0.05-0.16
				c0-0.01,0.01-0.01,0.01-0.03c0.27-0.9,0.69-1.72,1.24-2.46c0.01-0.02,0.02-0.03,0.03-0.04c0.04-0.07,0.1-0.13,0.15-0.2
				c0.02-0.03,0.05-0.07,0.08-0.1c0.02-0.03,0.05-0.05,0.07-0.08c0.21-0.26,0.44-0.5,0.68-0.73c-1.64-3.4-1.7-7.3,0.19-10.57
				c-1.1,0.36-2.17,0.84-3.18,1.41c-0.01,0.01-0.01,0.01-0.02,0.01c-0.09,0.05-0.18,0.11-0.27,0.16c-0.02,0.01-0.05,0.03-0.07,0.04
				c-0.01,0-0.01,0.01-0.01,0.01c-0.02,0.01-0.04,0.02-0.06,0.04c-0.03,0.01-0.05,0.03-0.08,0.05c-0.06,0.04-0.13,0.08-0.19,0.12
				c-0.05,0.03-0.1,0.07-0.15,0.1c-0.06,0.04-0.12,0.07-0.18,0.12c-0.05,0.04-0.1,0.07-0.15,0.11c-0.06,0.04-0.11,0.08-0.18,0.12
				c-0.05,0.04-0.1,0.07-0.15,0.11c-0.06,0.04-0.12,0.08-0.18,0.13c-0.05,0.04-0.1,0.07-0.15,0.11c-0.06,0.04-0.12,0.09-0.18,0.14
				c-0.04,0.04-0.09,0.07-0.14,0.11c-0.1,0.08-0.2,0.16-0.3,0.24c-0.05,0.04-0.09,0.08-0.13,0.11c-0.05,0.04-0.11,0.1-0.17,0.15
				c-0.04,0.04-0.1,0.08-0.14,0.13c-0.05,0.04-0.1,0.09-0.15,0.14c-0.04,0.05-0.1,0.09-0.14,0.14c-0.04,0.05-0.1,0.09-0.15,0.14
				s-0.1,0.09-0.14,0.14c-0.04,0.05-0.09,0.09-0.14,0.14c-0.04,0.05-0.1,0.1-0.14,0.14c-0.05,0.04-0.09,0.09-0.14,0.14
				c-0.05,0.05-0.09,0.1-0.14,0.14c-0.05,0.04-0.08,0.09-0.13,0.14c-0.05,0.05-0.09,0.1-0.14,0.15c-0.05,0.05-0.1,0.12-0.15,0.17
				c-0.07,0.09-0.16,0.18-0.24,0.27c-0.04,0.04-0.08,0.09-0.11,0.14c-0.05,0.05-0.09,0.11-0.14,0.17c-0.04,0.05-0.08,0.09-0.11,0.14
				c-0.05,0.05-0.09,0.11-0.13,0.17c-0.04,0.04-0.07,0.09-0.11,0.14c-0.04,0.06-0.08,0.11-0.13,0.18c-0.04,0.04-0.07,0.09-0.11,0.14
				c-0.02,0.03-0.04,0.06-0.06,0.09c-0.04,0.05-0.07,0.1-0.11,0.15c-0.04,0.05-0.07,0.1-0.11,0.15c-0.05,0.07-0.09,0.15-0.14,0.21
				c-0.03,0.04-0.05,0.08-0.08,0.12c-0.01,0.01-0.02,0.04-0.03,0.05c-0.04,0.07-0.09,0.14-0.14,0.21c-0.02,0.04-0.05,0.08-0.07,0.12
				c-0.08,0.12-0.15,0.25-0.22,0.37c-0.07,0.12-0.14,0.25-0.21,0.37c-0.02,0.04-0.05,0.08-0.07,0.12c-0.05,0.08-0.09,0.17-0.14,0.25
				c-0.02,0.04-0.05,0.1-0.08,0.14c-0.04,0.08-0.08,0.15-0.11,0.24c-0.02,0.05-0.04,0.1-0.08,0.15c-0.04,0.08-0.07,0.15-0.11,0.23
				c-0.02,0.05-0.05,0.1-0.07,0.15c-0.04,0.08-0.07,0.16-0.11,0.23c-0.02,0.05-0.05,0.1-0.06,0.14c-0.04,0.09-0.07,0.18-0.11,0.27
				c-0.01,0.04-0.03,0.08-0.04,0.12c-0.05,0.13-0.1,0.26-0.15,0.39c-0.01,0.01-0.01,0.02-0.01,0.03c-0.04,0.12-0.08,0.24-0.12,0.36
				c-0.01,0.05-0.03,0.09-0.04,0.13c-0.03,0.08-0.05,0.17-0.08,0.26c-0.02,0.05-0.03,0.11-0.05,0.15c-0.02,0.07-0.04,0.14-0.06,0.21
				c-0.01,0.01-0.01,0.03-0.01,0.04c-0.01,0.03-0.01,0.06-0.03,0.1c-0.01,0.03-0.01,0.06-0.02,0.09c-0.02,0.08-0.04,0.15-0.06,0.23
				c0,0.01-0.01,0.02-0.01,0.03c-0.01,0.03-0.01,0.07-0.02,0.1c-0.05,0.21-0.1,0.42-0.15,0.63v0.01
				C176.88,188.69,180.3,190.59,184.07,190.87"/>
			<path clip-path="url(#SVGID_4_)" fill="#3B4B54" d="M189.8,196.9c-0.31-0.09-0.62-0.21-0.93-0.34c-0.05-0.02-0.12-0.05-0.17-0.08
				c-0.01,0-0.02-0.01-0.02-0.01c-0.78-0.36-1.5-0.84-2.14-1.44l-0.02-0.02c-0.04-0.04-0.08-0.07-0.12-0.11
				c-0.02-0.02-0.04-0.05-0.07-0.07c-0.02-0.02-0.05-0.05-0.07-0.07c-0.04-0.04-0.08-0.08-0.12-0.11c-0.01-0.01-0.01-0.01-0.02-0.02
				c-0.64-0.68-1.15-1.47-1.52-2.3c-0.01-0.01-0.01-0.03-0.02-0.04c-0.03-0.08-0.06-0.15-0.09-0.23c-0.02-0.04-0.03-0.07-0.05-0.11
				c-0.01-0.03-0.02-0.07-0.04-0.11c-0.11-0.32-0.21-0.64-0.29-0.96c-3.77-0.28-7.19-2.18-9.08-5.45c-0.24,1.13-0.36,2.29-0.36,3.46
				v0.03v0.31v0.08v0.01v0.08v0.09c0,0.07,0.01,0.15,0.01,0.23c0,0.06,0.01,0.12,0.01,0.18c0.01,0.07,0.01,0.15,0.02,0.21
				c0.01,0.06,0.01,0.12,0.01,0.18c0.01,0.07,0.01,0.14,0.01,0.21c0.01,0.06,0.01,0.12,0.01,0.18c0.01,0.07,0.02,0.15,0.02,0.21
				c0.01,0.06,0.01,0.12,0.02,0.18c0.01,0.07,0.02,0.15,0.03,0.22c0.01,0.05,0.01,0.11,0.02,0.17c0.02,0.12,0.04,0.25,0.06,0.37
				c0.01,0.05,0.02,0.11,0.03,0.17c0.02,0.08,0.02,0.14,0.04,0.22c0.01,0.06,0.02,0.13,0.04,0.19c0.02,0.07,0.02,0.13,0.04,0.2
				c0.01,0.06,0.03,0.13,0.04,0.19c0.02,0.06,0.03,0.13,0.04,0.19c0.02,0.07,0.03,0.13,0.05,0.2c0.01,0.06,0.03,0.12,0.05,0.18
				c0.02,0.07,0.03,0.13,0.05,0.2c0.01,0.06,0.03,0.12,0.05,0.18c0.01,0.07,0.04,0.13,0.05,0.2c0.01,0.06,0.04,0.12,0.05,0.18
				c0.02,0.07,0.04,0.13,0.06,0.2c0.02,0.07,0.04,0.15,0.07,0.21c0.04,0.12,0.08,0.23,0.11,0.34c0.02,0.05,0.04,0.11,0.06,0.17
				c0.02,0.07,0.05,0.14,0.08,0.2c0.02,0.05,0.05,0.11,0.06,0.17c0.02,0.07,0.05,0.14,0.08,0.2c0.02,0.05,0.05,0.11,0.07,0.16
				c0.03,0.07,0.05,0.14,0.08,0.2c0.02,0.05,0.05,0.11,0.07,0.16c0.01,0.03,0.03,0.07,0.04,0.1c0.02,0.05,0.05,0.11,0.08,0.17
				c0.02,0.05,0.05,0.11,0.08,0.17c0.04,0.07,0.08,0.15,0.11,0.23c0.02,0.04,0.05,0.09,0.07,0.14c0.01,0.01,0.01,0.04,0.03,0.05
				c0.04,0.07,0.08,0.15,0.12,0.22c0.02,0.05,0.04,0.08,0.07,0.13c0.07,0.13,0.14,0.25,0.21,0.38c0.07,0.12,0.14,0.24,0.22,0.36
				c0.02,0.04,0.05,0.08,0.08,0.11c0.05,0.08,0.1,0.16,0.15,0.24c0.03,0.04,0.06,0.09,0.09,0.14c0.05,0.08,0.1,0.14,0.15,0.22
				c0.03,0.04,0.06,0.09,0.1,0.14c0.04,0.07,0.1,0.14,0.14,0.21c0.03,0.04,0.07,0.09,0.1,0.14c0.05,0.07,0.1,0.14,0.15,0.21
				c0.03,0.04,0.06,0.08,0.1,0.13c0.06,0.08,0.11,0.15,0.18,0.22c0.03,0.04,0.05,0.07,0.08,0.11c0.08,0.11,0.17,0.21,0.26,0.32
				c0.01,0.01,0.01,0.01,0.02,0.03c0.08,0.1,0.16,0.19,0.24,0.28c0.03,0.04,0.06,0.07,0.09,0.11c0.06,0.07,0.12,0.14,0.18,0.2
				c0.04,0.04,0.08,0.08,0.12,0.11c0.04,0.05,0.1,0.11,0.15,0.15l0.03,0.03c0.02,0.02,0.05,0.04,0.07,0.07
				c0.02,0.02,0.05,0.04,0.07,0.07c0.05,0.05,0.11,0.11,0.17,0.17c0.01,0.01,0.02,0.01,0.02,0.02c0.02,0.02,0.05,0.04,0.08,0.07
				c0.15,0.15,0.31,0.29,0.48,0.44h0.01C184.32,202.03,187.67,200.02,189.8,196.9"/>
			<path clip-path="url(#SVGID_4_)" fill="#0883A5" d="M197.83,195.04c-0.24,0.23-0.5,0.43-0.76,0.63c-0.05,0.04-0.1,0.07-0.15,0.11
				c-0.01,0.01-0.02,0.01-0.02,0.01c-0.7,0.49-1.49,0.87-2.32,1.13c-0.01,0-0.02,0.01-0.03,0.01c-0.05,0.01-0.11,0.03-0.16,0.04
				c-0.03,0.01-0.06,0.01-0.09,0.02c-0.03,0.01-0.06,0.01-0.09,0.02c-0.05,0.01-0.11,0.02-0.16,0.04c-0.01,0-0.01,0.01-0.03,0.01
				c-0.91,0.21-1.85,0.26-2.76,0.16c-0.01,0-0.04,0-0.05-0.01c-0.08-0.01-0.16-0.02-0.24-0.03c-0.04-0.01-0.08-0.01-0.12-0.02
				c-0.04-0.01-0.07-0.02-0.11-0.02c-0.33-0.06-0.65-0.14-0.97-0.23c-2.13,3.12-5.49,5.13-9.27,5.13c0.87,0.78,1.81,1.46,2.82,2.05
				c0.01,0.01,0.01,0.01,0.02,0.02c0.09,0.05,0.18,0.11,0.27,0.15c0.02,0.01,0.05,0.02,0.07,0.04c0.01,0,0.01,0.01,0.01,0.01
				c0.02,0.02,0.04,0.02,0.07,0.04c0.03,0.01,0.05,0.03,0.09,0.04c0.07,0.04,0.14,0.07,0.2,0.11c0.05,0.03,0.11,0.05,0.16,0.09
				c0.06,0.03,0.13,0.07,0.19,0.1c0.05,0.03,0.11,0.05,0.17,0.08c0.06,0.03,0.13,0.06,0.19,0.09c0.05,0.02,0.11,0.05,0.17,0.08
				c0.07,0.03,0.13,0.06,0.2,0.08c0.05,0.02,0.11,0.05,0.17,0.08c0.07,0.03,0.14,0.06,0.2,0.08c0.05,0.02,0.11,0.04,0.16,0.07
				c0.11,0.04,0.24,0.09,0.35,0.14c0.05,0.02,0.11,0.04,0.16,0.06c0.07,0.02,0.14,0.05,0.21,0.08c0.06,0.02,0.12,0.04,0.18,0.06
				c0.06,0.02,0.13,0.04,0.19,0.06c0.06,0.02,0.13,0.04,0.19,0.06c0.06,0.02,0.12,0.04,0.19,0.06c0.06,0.02,0.13,0.04,0.19,0.05
				c0.06,0.01,0.12,0.04,0.18,0.05c0.07,0.01,0.13,0.04,0.2,0.05c0.06,0.02,0.12,0.03,0.18,0.04c0.07,0.02,0.13,0.03,0.2,0.05
				c0.06,0.01,0.12,0.03,0.18,0.04c0.07,0.02,0.13,0.03,0.2,0.05c0.08,0.01,0.15,0.03,0.22,0.05c0.12,0.02,0.24,0.05,0.35,0.07
				c0.06,0.01,0.12,0.02,0.18,0.03c0.07,0.01,0.14,0.02,0.21,0.04c0.06,0.01,0.11,0.01,0.17,0.03c0.07,0.01,0.15,0.02,0.21,0.03
				c0.06,0.01,0.11,0.01,0.17,0.02c0.07,0.01,0.14,0.02,0.21,0.02c0.06,0.01,0.11,0.02,0.18,0.02c0.04,0,0.08,0.01,0.11,0.01
				c0.06,0.01,0.12,0.01,0.18,0.01c0.06,0.01,0.12,0.01,0.19,0.02c0.08,0.01,0.17,0.01,0.26,0.01c0.05,0,0.1,0.01,0.15,0.01h0.06
				c0.08,0,0.17,0.01,0.25,0.01c0.04,0,0.1,0.01,0.14,0.01c0.14,0,0.29,0.01,0.43,0.01c0.14,0,0.28,0,0.42-0.01
				c0.05,0,0.09,0,0.14-0.01c0.1,0,0.19-0.01,0.29-0.01c0.05,0,0.11-0.01,0.16-0.01c0.08-0.01,0.18-0.01,0.26-0.01
				c0.05-0.01,0.11-0.01,0.17-0.02c0.08-0.01,0.17-0.01,0.25-0.02c0.05-0.01,0.11-0.01,0.17-0.02c0.08-0.01,0.16-0.02,0.24-0.03
				c0.05-0.01,0.1-0.01,0.15-0.02c0.1-0.02,0.21-0.03,0.31-0.04c0.05-0.01,0.09-0.01,0.13-0.01c0.14-0.02,0.27-0.04,0.41-0.07
				c0.02,0,0.02-0.01,0.04-0.01c0.12-0.02,0.24-0.05,0.37-0.07c0.05-0.01,0.09-0.02,0.14-0.03c0.09-0.01,0.18-0.04,0.27-0.06
				c0.05-0.01,0.11-0.02,0.16-0.04c0.07-0.02,0.14-0.03,0.21-0.05c0.02,0,0.03-0.01,0.05-0.01c0.03-0.01,0.07-0.01,0.1-0.02
				l0.09-0.02c0.08-0.02,0.15-0.04,0.23-0.06c0.01,0,0.02-0.01,0.03-0.01c0.03-0.01,0.07-0.02,0.1-0.03
				c0.21-0.06,0.41-0.12,0.62-0.19l0.01-0.01C199.53,202.35,199.47,198.44,197.83,195.04"/>
			<path clip-path="url(#SVGID_4_)" fill="#00AED1" d="M200.21,187.06c0.08,0.32,0.13,0.65,0.17,0.98c0.01,0.06,0.01,0.12,0.01,0.18
				v0.02c0.08,0.85,0.01,1.71-0.18,2.57c0,0.01-0.01,0.02-0.01,0.03c-0.01,0.05-0.02,0.11-0.04,0.16c-0.01,0.03-0.02,0.06-0.02,0.09
				c-0.01,0.03-0.01,0.06-0.02,0.09c-0.01,0.05-0.03,0.11-0.04,0.16c0,0.01-0.01,0.01-0.01,0.03c-0.27,0.89-0.69,1.72-1.24,2.46
				c-0.01,0.01-0.02,0.03-0.03,0.04c-0.05,0.07-0.1,0.13-0.15,0.2c-0.02,0.03-0.05,0.07-0.08,0.1c-0.02,0.03-0.05,0.05-0.07,0.08
				c-0.21,0.26-0.44,0.5-0.68,0.73c1.63,3.39,1.7,7.3-0.19,10.57c1.1-0.37,2.17-0.84,3.18-1.41c0.01-0.01,0.02-0.01,0.02-0.01
				c0.09-0.05,0.18-0.11,0.27-0.16c0.02-0.02,0.05-0.03,0.07-0.04c0.01,0,0.01-0.01,0.01-0.01c0.02-0.02,0.05-0.02,0.06-0.04
				c0.03-0.01,0.05-0.03,0.09-0.05c0.06-0.04,0.13-0.08,0.19-0.12c0.05-0.03,0.1-0.07,0.15-0.1c0.06-0.04,0.12-0.08,0.18-0.12
				c0.05-0.04,0.1-0.07,0.15-0.11c0.06-0.04,0.11-0.08,0.17-0.12c0.05-0.04,0.1-0.07,0.15-0.11c0.06-0.04,0.11-0.08,0.17-0.13
				c0.05-0.04,0.1-0.07,0.14-0.11c0.06-0.05,0.12-0.09,0.18-0.14c0.04-0.04,0.09-0.07,0.14-0.11c0.1-0.08,0.2-0.16,0.3-0.24
				c0.05-0.04,0.09-0.08,0.13-0.12c0.05-0.04,0.12-0.1,0.17-0.14c0.05-0.05,0.1-0.08,0.15-0.13c0.05-0.05,0.1-0.09,0.15-0.14
				c0.05-0.05,0.1-0.09,0.15-0.14c0.04-0.05,0.1-0.09,0.15-0.14c0.04-0.05,0.1-0.09,0.14-0.14l0.14-0.14
				c0.05-0.05,0.1-0.1,0.15-0.15c0.04-0.05,0.09-0.09,0.14-0.14c0.04-0.05,0.09-0.1,0.14-0.14c0.04-0.04,0.08-0.09,0.13-0.14
				c0.05-0.05,0.09-0.1,0.14-0.15c0.05-0.05,0.1-0.11,0.15-0.17c0.07-0.09,0.16-0.18,0.24-0.27c0.04-0.04,0.08-0.09,0.11-0.14
				c0.05-0.05,0.09-0.11,0.14-0.16c0.04-0.05,0.08-0.09,0.11-0.14c0.05-0.05,0.09-0.12,0.13-0.17c0.04-0.04,0.07-0.09,0.11-0.14
				c0.04-0.06,0.08-0.11,0.13-0.18c0.04-0.05,0.07-0.09,0.11-0.14c0.02-0.03,0.04-0.06,0.06-0.09c0.04-0.05,0.07-0.1,0.11-0.15
				c0.04-0.05,0.07-0.1,0.11-0.15c0.04-0.07,0.09-0.15,0.14-0.21c0.03-0.04,0.05-0.08,0.08-0.12c0.01-0.02,0.02-0.04,0.03-0.05
				c0.04-0.07,0.09-0.14,0.14-0.21c0.02-0.04,0.05-0.08,0.08-0.12c0.08-0.12,0.15-0.25,0.22-0.37c0.07-0.12,0.14-0.25,0.21-0.37
				c0.02-0.04,0.04-0.08,0.07-0.12c0.04-0.08,0.09-0.17,0.14-0.25c0.02-0.04,0.04-0.1,0.07-0.14c0.04-0.08,0.08-0.15,0.12-0.24
				c0.02-0.05,0.04-0.1,0.08-0.15c0.04-0.07,0.07-0.15,0.11-0.23c0.02-0.05,0.05-0.1,0.07-0.15c0.04-0.08,0.07-0.16,0.11-0.24
				c0.02-0.04,0.05-0.1,0.06-0.14c0.04-0.09,0.07-0.18,0.11-0.27c0.02-0.04,0.03-0.08,0.05-0.12c0.05-0.13,0.1-0.26,0.14-0.39
				c0.01-0.01,0.01-0.02,0.01-0.03c0.04-0.12,0.08-0.23,0.12-0.36c0.02-0.04,0.03-0.09,0.05-0.13c0.03-0.08,0.05-0.18,0.08-0.26
				c0.02-0.05,0.03-0.11,0.05-0.15c0.02-0.07,0.04-0.14,0.06-0.21c0.01-0.01,0.01-0.03,0.02-0.05c0.01-0.03,0.02-0.06,0.03-0.1
				c0.01-0.03,0.01-0.06,0.02-0.09c0.02-0.08,0.04-0.15,0.06-0.23c0-0.01,0.01-0.02,0.01-0.03c0.01-0.03,0.01-0.07,0.02-0.1
				c0.05-0.21,0.1-0.42,0.15-0.63v-0.01C207.4,189.25,203.98,187.35,200.21,187.06"/>
			<path clip-path="url(#SVGID_4_)" fill="#027C68" d="M194.55,181.02c0.31,0.09,0.62,0.21,0.93,0.34c0.05,0.02,0.11,0.05,0.17,0.08
				c0.01,0,0.02,0.01,0.02,0.01c0.78,0.37,1.5,0.84,2.14,1.44c0.01,0.01,0.02,0.01,0.02,0.02c0.04,0.04,0.08,0.07,0.12,0.11
				c0.02,0.02,0.05,0.05,0.07,0.07c0.02,0.02,0.05,0.05,0.07,0.07c0.04,0.04,0.08,0.08,0.11,0.11c0.01,0.01,0.01,0.01,0.02,0.02
				c0.64,0.68,1.15,1.47,1.52,2.3c0.01,0.02,0.01,0.03,0.02,0.05c0.03,0.08,0.06,0.15,0.09,0.23c0.02,0.04,0.03,0.08,0.05,0.12
				c0.01,0.03,0.02,0.07,0.04,0.11c0.11,0.32,0.21,0.64,0.29,0.96c3.77,0.28,7.19,2.18,9.08,5.45c0.24-1.13,0.36-2.29,0.37-3.46
				v-0.03v-0.31v-0.08v-0.01v-0.08v-0.09c0-0.08-0.01-0.15-0.01-0.23c0-0.06-0.01-0.12-0.01-0.18c-0.01-0.07-0.01-0.14-0.02-0.21
				c-0.01-0.06-0.01-0.12-0.01-0.18c-0.01-0.07-0.01-0.15-0.01-0.21c-0.01-0.06-0.01-0.12-0.01-0.18c-0.01-0.07-0.02-0.15-0.02-0.21
				c-0.01-0.06-0.01-0.12-0.02-0.18c-0.01-0.07-0.02-0.15-0.03-0.22c-0.01-0.05-0.01-0.11-0.02-0.17c-0.02-0.12-0.04-0.25-0.06-0.37
				c-0.01-0.05-0.02-0.11-0.03-0.17c-0.02-0.08-0.02-0.15-0.04-0.22c-0.01-0.06-0.02-0.13-0.04-0.19c-0.02-0.07-0.02-0.13-0.04-0.2
				c-0.01-0.06-0.03-0.13-0.04-0.19c-0.02-0.06-0.03-0.13-0.04-0.19c-0.02-0.07-0.03-0.13-0.05-0.2c-0.01-0.06-0.03-0.12-0.05-0.18
				c-0.01-0.07-0.03-0.13-0.05-0.2c-0.01-0.06-0.03-0.12-0.05-0.18c-0.01-0.07-0.04-0.13-0.05-0.2c-0.01-0.06-0.04-0.12-0.05-0.18
				c-0.02-0.07-0.04-0.13-0.06-0.2c-0.02-0.07-0.04-0.14-0.07-0.21c-0.04-0.11-0.08-0.23-0.11-0.33c-0.02-0.05-0.04-0.11-0.06-0.17
				c-0.02-0.07-0.05-0.14-0.07-0.2c-0.02-0.05-0.05-0.11-0.06-0.17c-0.02-0.07-0.05-0.14-0.08-0.2c-0.02-0.05-0.05-0.11-0.07-0.16
				c-0.03-0.07-0.05-0.14-0.08-0.2c-0.02-0.05-0.05-0.11-0.07-0.16c-0.01-0.03-0.03-0.07-0.04-0.1c-0.02-0.05-0.05-0.11-0.08-0.17
				c-0.02-0.05-0.05-0.11-0.08-0.17c-0.04-0.08-0.08-0.15-0.11-0.23c-0.02-0.04-0.05-0.09-0.07-0.14c-0.01-0.01-0.01-0.04-0.03-0.05
				c-0.04-0.08-0.08-0.15-0.11-0.22c-0.02-0.05-0.05-0.08-0.07-0.13c-0.07-0.13-0.14-0.25-0.21-0.38c-0.07-0.12-0.14-0.24-0.22-0.36
				c-0.02-0.04-0.05-0.08-0.08-0.11c-0.05-0.08-0.1-0.16-0.15-0.24c-0.03-0.05-0.06-0.09-0.09-0.14c-0.04-0.07-0.1-0.14-0.15-0.22
				c-0.03-0.04-0.06-0.09-0.1-0.14c-0.04-0.07-0.1-0.14-0.14-0.21c-0.03-0.05-0.07-0.09-0.1-0.14c-0.05-0.07-0.1-0.14-0.15-0.21
				c-0.03-0.04-0.06-0.08-0.1-0.13c-0.06-0.08-0.11-0.15-0.17-0.22c-0.03-0.04-0.05-0.07-0.08-0.11c-0.08-0.11-0.18-0.21-0.26-0.32
				c-0.01-0.01-0.02-0.01-0.02-0.03c-0.08-0.1-0.16-0.19-0.24-0.28c-0.03-0.04-0.06-0.07-0.09-0.11c-0.06-0.07-0.12-0.14-0.18-0.2
				c-0.04-0.04-0.07-0.08-0.12-0.11c-0.04-0.05-0.1-0.11-0.15-0.15c-0.01-0.01-0.02-0.02-0.03-0.03c-0.02-0.02-0.05-0.05-0.07-0.07
				c-0.02-0.02-0.05-0.05-0.07-0.07c-0.05-0.05-0.11-0.11-0.17-0.17c-0.01-0.01-0.02-0.02-0.02-0.02c-0.02-0.02-0.05-0.04-0.08-0.07
				c-0.15-0.15-0.31-0.3-0.48-0.44h-0.01C200.04,175.9,196.68,177.91,194.55,181.02"/>
			<path clip-path="url(#SVGID_4_)" fill="#00B199" d="M186.45,182.96c0.24-0.23,0.5-0.43,0.76-0.63c0.05-0.04,0.1-0.07,0.15-0.11
				c0.01-0.01,0.02-0.01,0.02-0.02c0.7-0.49,1.48-0.87,2.32-1.13c0.01,0,0.01-0.01,0.03-0.01c0.05-0.01,0.11-0.03,0.16-0.04
				c0.03-0.01,0.06-0.01,0.09-0.02c0.03-0.01,0.06-0.02,0.09-0.02c0.05-0.02,0.11-0.02,0.16-0.04c0.01,0,0.02-0.01,0.03-0.01
				c0.91-0.21,1.85-0.26,2.75-0.16c0.01,0,0.04,0,0.05,0.01c0.08,0.01,0.16,0.02,0.24,0.03c0.04,0.01,0.08,0.01,0.12,0.02
				c0.04,0.01,0.07,0.01,0.11,0.01c0.33,0.06,0.65,0.14,0.97,0.23c2.13-3.12,5.49-5.13,9.27-5.13c-0.87-0.77-1.81-1.46-2.82-2.05
				c-0.01-0.01-0.01-0.01-0.02-0.01c-0.09-0.05-0.18-0.11-0.27-0.15c-0.02-0.01-0.04-0.02-0.07-0.04c-0.01,0-0.01-0.01-0.01-0.01
				c-0.02-0.02-0.05-0.02-0.07-0.04c-0.03-0.01-0.05-0.03-0.08-0.04c-0.07-0.04-0.14-0.07-0.2-0.11c-0.05-0.03-0.11-0.05-0.16-0.08
				c-0.06-0.03-0.13-0.07-0.19-0.1c-0.05-0.03-0.11-0.05-0.17-0.08c-0.06-0.03-0.13-0.06-0.19-0.09c-0.05-0.02-0.11-0.05-0.17-0.08
				c-0.07-0.03-0.13-0.06-0.2-0.08c-0.05-0.02-0.11-0.04-0.17-0.07c-0.07-0.03-0.14-0.06-0.2-0.08c-0.05-0.02-0.11-0.05-0.16-0.07
				c-0.12-0.05-0.24-0.09-0.35-0.14c-0.05-0.02-0.11-0.04-0.16-0.06c-0.07-0.02-0.14-0.05-0.21-0.08c-0.06-0.02-0.12-0.04-0.18-0.06
				c-0.06-0.02-0.13-0.04-0.19-0.06c-0.06-0.02-0.13-0.04-0.19-0.06c-0.06-0.02-0.12-0.04-0.19-0.06c-0.06-0.02-0.13-0.04-0.19-0.05
				c-0.06-0.01-0.12-0.04-0.18-0.05c-0.07-0.02-0.13-0.04-0.2-0.05c-0.06-0.01-0.12-0.03-0.18-0.05c-0.07-0.01-0.13-0.03-0.2-0.04
				c-0.06-0.01-0.12-0.03-0.18-0.04c-0.07-0.02-0.13-0.03-0.2-0.05c-0.08-0.01-0.15-0.03-0.22-0.05c-0.11-0.02-0.24-0.04-0.35-0.07
				c-0.06-0.01-0.11-0.02-0.17-0.03c-0.07-0.01-0.14-0.02-0.21-0.04c-0.06-0.01-0.11-0.01-0.18-0.03c-0.07-0.01-0.14-0.02-0.21-0.03
				c-0.06-0.01-0.11-0.01-0.18-0.02c-0.07-0.01-0.14-0.01-0.21-0.02c-0.06-0.01-0.12-0.01-0.18-0.01c-0.04,0-0.07-0.01-0.11-0.01
				c-0.06-0.01-0.12-0.01-0.18-0.01c-0.06-0.01-0.12-0.01-0.19-0.01c-0.08-0.01-0.17-0.01-0.26-0.02c-0.05,0-0.1-0.01-0.15-0.01
				h-0.06c-0.08,0-0.17-0.01-0.25-0.01c-0.05,0-0.1-0.01-0.15-0.01c-0.14,0-0.29-0.01-0.43-0.01s-0.28,0-0.43,0.01
				c-0.05,0-0.09,0-0.14,0.01c-0.1,0-0.19,0.01-0.29,0.01c-0.05,0-0.11,0.01-0.16,0.01c-0.09,0.01-0.18,0.01-0.26,0.02
				c-0.05,0.01-0.11,0.01-0.17,0.01c-0.08,0.01-0.17,0.01-0.25,0.02c-0.05,0.01-0.11,0.01-0.17,0.01c-0.08,0.01-0.16,0.02-0.24,0.03
				c-0.05,0.01-0.1,0.01-0.15,0.02c-0.1,0.02-0.21,0.03-0.31,0.04c-0.05,0.01-0.09,0.01-0.13,0.01c-0.14,0.02-0.27,0.05-0.41,0.07
				c-0.01,0-0.02,0.01-0.04,0.01c-0.12,0.02-0.25,0.04-0.37,0.07c-0.04,0.01-0.09,0.02-0.14,0.03c-0.09,0.01-0.17,0.04-0.26,0.06
				c-0.05,0.01-0.11,0.02-0.16,0.04c-0.07,0.01-0.14,0.03-0.21,0.05c-0.02,0-0.03,0.01-0.05,0.01c-0.03,0.01-0.07,0.01-0.1,0.02
				c-0.03,0.01-0.06,0.01-0.09,0.02c-0.07,0.02-0.15,0.04-0.23,0.06c-0.01,0-0.02,0.01-0.03,0.01c-0.03,0.01-0.07,0.02-0.1,0.03
				c-0.21,0.06-0.41,0.12-0.62,0.19l-0.01,0.01C184.76,175.65,184.82,179.56,186.45,182.96"/>
		</g>
	</g>
</g>
<g>
	<g>
		<defs>
			<rect id="SVGID_5_" x="507" y="169" width="40" height="40"/>
		</defs>
		<clipPath id="SVGID_6_">
			<use xlink:href="#SVGID_5_"  overflow="visible"/>
		</clipPath>
		<g clip-path="url(#SVGID_6_)">
			<defs>
				<rect id="SVGID_7_" x="507" y="169" width="40" height="40"/>
			</defs>
			<clipPath id="SVGID_8_">
				<use xlink:href="#SVGID_7_"  overflow="visible"/>
			</clipPath>
			<path clip-path="url(#SVGID_8_)" fill="#243238" d="M518.89,190.87c-0.08-0.32-0.13-0.65-0.17-0.98
				c-0.01-0.06-0.02-0.12-0.02-0.18v-0.02c-0.08-0.85-0.01-1.71,0.18-2.57c0-0.01,0.01-0.01,0.01-0.03
				c0.02-0.05,0.02-0.11,0.04-0.16c0.01-0.03,0.02-0.06,0.02-0.09c0.01-0.03,0.01-0.06,0.02-0.09c0.02-0.05,0.03-0.11,0.05-0.16
				c0-0.01,0.01-0.01,0.01-0.03c0.27-0.9,0.69-1.72,1.24-2.46c0.01-0.02,0.02-0.03,0.03-0.04c0.05-0.07,0.1-0.13,0.15-0.2
				c0.02-0.03,0.05-0.07,0.08-0.1c0.02-0.03,0.05-0.05,0.07-0.08c0.21-0.26,0.44-0.5,0.68-0.73c-1.64-3.4-1.7-7.3,0.19-10.57
				c-1.1,0.36-2.17,0.84-3.18,1.41c-0.01,0.01-0.02,0.01-0.02,0.01c-0.09,0.05-0.18,0.11-0.27,0.16c-0.02,0.01-0.05,0.03-0.07,0.04
				c-0.01,0-0.01,0.01-0.01,0.01c-0.02,0.01-0.05,0.02-0.06,0.04c-0.03,0.01-0.05,0.03-0.08,0.05c-0.06,0.04-0.13,0.08-0.19,0.12
				c-0.05,0.03-0.1,0.07-0.15,0.1c-0.06,0.04-0.12,0.07-0.18,0.12c-0.05,0.04-0.1,0.07-0.15,0.11c-0.06,0.04-0.11,0.08-0.17,0.12
				c-0.05,0.04-0.1,0.07-0.15,0.11c-0.06,0.04-0.11,0.08-0.17,0.13c-0.05,0.04-0.1,0.07-0.15,0.11c-0.06,0.04-0.12,0.09-0.17,0.14
				c-0.04,0.04-0.09,0.07-0.14,0.11c-0.1,0.08-0.2,0.16-0.3,0.24c-0.05,0.04-0.09,0.08-0.13,0.11c-0.05,0.04-0.11,0.1-0.17,0.15
				c-0.05,0.04-0.1,0.08-0.14,0.13c-0.05,0.04-0.1,0.09-0.15,0.14c-0.04,0.05-0.1,0.09-0.14,0.14c-0.05,0.05-0.1,0.09-0.15,0.14
				s-0.1,0.09-0.15,0.14c-0.04,0.05-0.09,0.09-0.14,0.14c-0.04,0.05-0.1,0.1-0.14,0.14c-0.05,0.04-0.09,0.09-0.14,0.14
				c-0.05,0.05-0.09,0.1-0.14,0.14c-0.05,0.04-0.08,0.09-0.13,0.14c-0.05,0.05-0.09,0.1-0.14,0.15c-0.05,0.05-0.1,0.12-0.15,0.17
				c-0.08,0.09-0.16,0.18-0.23,0.27c-0.04,0.04-0.08,0.09-0.11,0.14c-0.05,0.05-0.09,0.11-0.14,0.17c-0.04,0.05-0.08,0.09-0.11,0.14
				c-0.05,0.05-0.09,0.11-0.13,0.17c-0.04,0.04-0.07,0.09-0.11,0.14c-0.04,0.06-0.08,0.11-0.13,0.18c-0.04,0.04-0.07,0.09-0.11,0.14
				c-0.02,0.03-0.05,0.06-0.06,0.09c-0.04,0.05-0.07,0.1-0.11,0.15c-0.04,0.05-0.07,0.1-0.11,0.15c-0.05,0.07-0.09,0.15-0.15,0.21
				c-0.03,0.04-0.05,0.08-0.08,0.12c-0.01,0.01-0.02,0.04-0.03,0.05c-0.04,0.07-0.09,0.14-0.14,0.21c-0.02,0.04-0.05,0.08-0.07,0.12
				c-0.08,0.12-0.15,0.25-0.22,0.37c-0.07,0.12-0.14,0.25-0.2,0.37c-0.02,0.04-0.05,0.08-0.07,0.12c-0.05,0.08-0.09,0.17-0.14,0.25
				c-0.02,0.04-0.05,0.1-0.08,0.14c-0.04,0.08-0.08,0.15-0.11,0.24c-0.02,0.05-0.04,0.1-0.08,0.15c-0.04,0.08-0.07,0.15-0.11,0.23
				c-0.02,0.05-0.05,0.1-0.07,0.15c-0.04,0.08-0.07,0.16-0.11,0.23c-0.02,0.05-0.05,0.1-0.06,0.14c-0.04,0.09-0.07,0.18-0.11,0.27
				c-0.01,0.04-0.03,0.08-0.04,0.12c-0.05,0.13-0.1,0.26-0.15,0.39c-0.01,0.01-0.01,0.02-0.01,0.03c-0.05,0.12-0.08,0.24-0.12,0.36
				c-0.02,0.05-0.03,0.09-0.05,0.13c-0.03,0.08-0.05,0.17-0.08,0.26c-0.02,0.05-0.03,0.11-0.05,0.15c-0.02,0.07-0.04,0.14-0.06,0.21
				c-0.01,0.01-0.01,0.03-0.01,0.04c-0.01,0.03-0.02,0.06-0.03,0.1c-0.01,0.03-0.01,0.06-0.02,0.09c-0.02,0.08-0.04,0.15-0.06,0.23
				c0,0.01-0.01,0.02-0.01,0.03c-0.01,0.03-0.02,0.07-0.02,0.1c-0.05,0.21-0.1,0.42-0.15,0.63v0.01
				C511.7,188.69,515.13,190.59,518.89,190.87"/>
			<path clip-path="url(#SVGID_8_)" fill="#3B4B54" d="M524.63,196.9c-0.31-0.09-0.62-0.21-0.93-0.34
				c-0.05-0.02-0.11-0.05-0.17-0.08c-0.01,0-0.02-0.01-0.02-0.01c-0.78-0.36-1.5-0.84-2.14-1.44l-0.02-0.02
				c-0.04-0.04-0.08-0.07-0.12-0.11c-0.02-0.02-0.04-0.05-0.07-0.07c-0.02-0.02-0.05-0.05-0.07-0.07c-0.04-0.04-0.08-0.08-0.11-0.11
				c-0.01-0.01-0.02-0.01-0.02-0.02c-0.64-0.68-1.15-1.47-1.52-2.3c-0.01-0.01-0.02-0.03-0.02-0.04c-0.03-0.08-0.06-0.15-0.09-0.23
				c-0.02-0.04-0.03-0.07-0.05-0.11c-0.01-0.03-0.02-0.07-0.04-0.11c-0.11-0.32-0.21-0.64-0.29-0.96c-3.77-0.28-7.19-2.18-9.08-5.45
				c-0.24,1.13-0.36,2.29-0.36,3.46v0.03v0.31v0.08v0.01v0.08v0.09c0,0.07,0.01,0.15,0.01,0.23c0,0.06,0.01,0.12,0.01,0.18
				c0.01,0.07,0.01,0.15,0.02,0.21c0.01,0.06,0.01,0.12,0.01,0.18c0.01,0.07,0.01,0.14,0.02,0.21c0.01,0.06,0.01,0.12,0.01,0.18
				c0.01,0.07,0.02,0.15,0.02,0.21c0.01,0.06,0.01,0.12,0.02,0.18c0.01,0.07,0.02,0.15,0.03,0.22c0.01,0.05,0.01,0.11,0.02,0.17
				c0.02,0.12,0.04,0.25,0.06,0.37c0.01,0.05,0.02,0.11,0.03,0.17c0.02,0.08,0.02,0.14,0.04,0.22c0.01,0.06,0.02,0.13,0.04,0.19
				c0.02,0.07,0.02,0.13,0.04,0.2c0.02,0.06,0.03,0.13,0.05,0.19c0.02,0.06,0.03,0.13,0.05,0.19c0.02,0.07,0.03,0.13,0.05,0.2
				c0.02,0.06,0.03,0.12,0.05,0.18c0.01,0.07,0.03,0.13,0.05,0.2c0.01,0.06,0.03,0.12,0.05,0.18c0.01,0.07,0.04,0.13,0.05,0.2
				c0.02,0.06,0.04,0.12,0.05,0.18c0.02,0.07,0.04,0.13,0.06,0.2c0.02,0.07,0.04,0.15,0.07,0.21c0.04,0.12,0.08,0.23,0.11,0.34
				c0.02,0.05,0.04,0.11,0.06,0.17c0.02,0.07,0.05,0.14,0.08,0.2c0.02,0.05,0.05,0.11,0.06,0.17c0.02,0.07,0.05,0.14,0.08,0.2
				c0.02,0.05,0.05,0.11,0.07,0.16c0.03,0.07,0.05,0.14,0.08,0.2c0.02,0.05,0.05,0.11,0.07,0.16c0.01,0.03,0.03,0.07,0.04,0.1
				c0.02,0.05,0.05,0.11,0.08,0.17c0.02,0.05,0.05,0.11,0.08,0.17c0.04,0.07,0.08,0.15,0.11,0.23c0.02,0.04,0.05,0.09,0.07,0.14
				c0.01,0.01,0.01,0.04,0.03,0.05c0.04,0.07,0.08,0.15,0.11,0.22c0.02,0.05,0.04,0.08,0.07,0.13c0.07,0.13,0.14,0.25,0.21,0.38
				c0.07,0.12,0.14,0.24,0.22,0.36c0.02,0.04,0.05,0.08,0.08,0.11c0.05,0.08,0.1,0.16,0.15,0.24c0.03,0.04,0.06,0.09,0.09,0.14
				c0.05,0.08,0.1,0.14,0.15,0.22c0.03,0.04,0.06,0.09,0.1,0.14c0.05,0.07,0.1,0.14,0.14,0.21c0.03,0.04,0.07,0.09,0.1,0.14
				c0.05,0.07,0.1,0.14,0.15,0.21c0.03,0.04,0.06,0.08,0.1,0.13c0.06,0.08,0.11,0.15,0.17,0.22c0.03,0.04,0.05,0.07,0.08,0.11
				c0.08,0.11,0.18,0.21,0.26,0.32c0.01,0.01,0.01,0.01,0.02,0.03c0.08,0.1,0.16,0.19,0.24,0.28c0.03,0.04,0.06,0.07,0.09,0.11
				c0.06,0.07,0.12,0.14,0.18,0.2c0.04,0.04,0.08,0.08,0.11,0.11c0.05,0.05,0.1,0.11,0.15,0.15l0.03,0.03
				c0.02,0.02,0.05,0.04,0.07,0.07c0.02,0.02,0.05,0.04,0.07,0.07c0.05,0.05,0.11,0.11,0.17,0.17c0.01,0.01,0.02,0.01,0.02,0.02
				c0.02,0.02,0.05,0.04,0.08,0.07c0.15,0.15,0.31,0.29,0.48,0.44h0.01C519.14,202.03,522.5,200.02,524.63,196.9"/>
			<path clip-path="url(#SVGID_8_)" fill="#0883A5" d="M532.65,195.04c-0.24,0.23-0.49,0.43-0.76,0.63
				c-0.05,0.04-0.1,0.07-0.15,0.11c-0.01,0.01-0.02,0.01-0.02,0.01c-0.7,0.49-1.48,0.87-2.32,1.13c-0.01,0-0.02,0.01-0.03,0.01
				c-0.05,0.01-0.11,0.03-0.16,0.04c-0.03,0.01-0.06,0.01-0.09,0.02c-0.03,0.01-0.06,0.01-0.09,0.02c-0.05,0.01-0.11,0.02-0.16,0.04
				c-0.01,0-0.02,0.01-0.03,0.01c-0.91,0.21-1.85,0.26-2.75,0.16c-0.01,0-0.04,0-0.05-0.01c-0.08-0.01-0.16-0.02-0.24-0.03
				c-0.04-0.01-0.08-0.01-0.12-0.02c-0.04-0.01-0.07-0.02-0.11-0.02c-0.33-0.06-0.65-0.14-0.97-0.23c-2.13,3.12-5.49,5.13-9.27,5.13
				c0.87,0.78,1.81,1.46,2.82,2.05c0.01,0.01,0.01,0.01,0.02,0.02c0.09,0.05,0.18,0.11,0.27,0.15c0.02,0.01,0.05,0.02,0.07,0.04
				c0.01,0,0.01,0.01,0.02,0.01c0.02,0.02,0.04,0.02,0.07,0.04c0.03,0.01,0.05,0.03,0.08,0.04c0.07,0.04,0.14,0.07,0.2,0.11
				c0.05,0.03,0.11,0.05,0.16,0.09c0.06,0.03,0.13,0.07,0.19,0.1c0.05,0.03,0.11,0.05,0.17,0.08c0.06,0.03,0.13,0.06,0.19,0.09
				c0.05,0.02,0.12,0.05,0.17,0.08c0.07,0.03,0.13,0.06,0.2,0.08c0.05,0.02,0.11,0.05,0.17,0.08c0.07,0.03,0.14,0.06,0.21,0.08
				c0.05,0.02,0.11,0.04,0.16,0.07c0.11,0.04,0.24,0.09,0.35,0.14c0.05,0.02,0.11,0.04,0.16,0.06c0.07,0.02,0.14,0.05,0.21,0.08
				c0.06,0.02,0.12,0.04,0.18,0.06c0.06,0.02,0.13,0.04,0.19,0.06c0.06,0.02,0.13,0.04,0.19,0.06c0.06,0.02,0.12,0.04,0.19,0.06
				c0.06,0.02,0.13,0.04,0.19,0.05c0.06,0.01,0.12,0.04,0.18,0.05c0.07,0.01,0.13,0.04,0.2,0.05c0.06,0.02,0.12,0.03,0.18,0.04
				c0.07,0.02,0.13,0.03,0.2,0.05c0.06,0.01,0.12,0.03,0.18,0.04c0.07,0.02,0.13,0.03,0.2,0.05c0.08,0.01,0.14,0.03,0.22,0.05
				c0.11,0.02,0.24,0.05,0.35,0.07c0.06,0.01,0.11,0.02,0.18,0.03c0.07,0.01,0.14,0.02,0.21,0.04c0.06,0.01,0.11,0.01,0.17,0.03
				c0.07,0.01,0.15,0.02,0.21,0.03c0.06,0.01,0.11,0.01,0.17,0.02c0.07,0.01,0.15,0.02,0.21,0.02c0.06,0.01,0.11,0.02,0.17,0.02
				c0.04,0,0.08,0.01,0.11,0.01c0.06,0.01,0.12,0.01,0.18,0.01c0.06,0.01,0.12,0.01,0.19,0.02c0.08,0.01,0.17,0.01,0.26,0.01
				c0.05,0,0.1,0.01,0.15,0.01h0.06c0.08,0,0.17,0.01,0.25,0.01c0.04,0,0.1,0.01,0.14,0.01c0.15,0,0.29,0.01,0.43,0.01
				c0.14,0,0.28,0,0.42-0.01c0.05,0,0.09,0,0.14-0.01c0.1,0,0.19-0.01,0.29-0.01c0.05,0,0.11-0.01,0.16-0.01
				c0.08-0.01,0.18-0.01,0.26-0.01c0.05-0.01,0.11-0.01,0.17-0.02c0.08-0.01,0.17-0.01,0.25-0.02c0.05-0.01,0.11-0.01,0.17-0.02
				c0.08-0.01,0.16-0.02,0.24-0.03c0.05-0.01,0.1-0.01,0.14-0.02c0.1-0.02,0.21-0.03,0.31-0.04c0.05-0.01,0.09-0.01,0.13-0.01
				c0.14-0.02,0.27-0.04,0.41-0.07c0.02,0,0.02-0.01,0.04-0.01c0.12-0.02,0.24-0.05,0.37-0.07c0.05-0.01,0.09-0.02,0.14-0.03
				c0.09-0.01,0.18-0.04,0.27-0.06c0.05-0.01,0.11-0.02,0.16-0.04c0.07-0.02,0.14-0.03,0.21-0.05c0.01,0,0.03-0.01,0.04-0.01
				c0.03-0.01,0.07-0.01,0.1-0.02l0.09-0.02c0.08-0.02,0.15-0.04,0.23-0.06c0.01,0,0.02-0.01,0.03-0.01
				c0.03-0.01,0.07-0.02,0.1-0.03c0.2-0.06,0.41-0.12,0.62-0.19l0.01-0.01C534.36,202.35,534.29,198.44,532.65,195.04"/>
			<path clip-path="url(#SVGID_8_)" fill="#00AED1" d="M535.03,187.06c0.08,0.32,0.13,0.65,0.17,0.98c0.01,0.06,0.01,0.12,0.01,0.18
				v0.02c0.08,0.85,0.02,1.71-0.18,2.57c0,0.01-0.01,0.02-0.01,0.03c-0.01,0.05-0.02,0.11-0.04,0.16c-0.01,0.03-0.02,0.06-0.02,0.09
				c-0.01,0.03-0.01,0.06-0.02,0.09c-0.02,0.05-0.03,0.11-0.04,0.16c0,0.01-0.01,0.01-0.01,0.03c-0.27,0.89-0.69,1.72-1.24,2.46
				c-0.01,0.01-0.02,0.03-0.03,0.04c-0.05,0.07-0.1,0.13-0.15,0.2c-0.02,0.03-0.05,0.07-0.08,0.1c-0.02,0.03-0.05,0.05-0.07,0.08
				c-0.21,0.26-0.44,0.5-0.68,0.73c1.63,3.39,1.7,7.3-0.19,10.57c1.1-0.37,2.17-0.84,3.18-1.41c0.01-0.01,0.02-0.01,0.02-0.01
				c0.09-0.05,0.18-0.11,0.27-0.16c0.02-0.02,0.04-0.03,0.07-0.04c0.01,0,0.01-0.01,0.01-0.01c0.02-0.02,0.05-0.02,0.06-0.04
				c0.03-0.01,0.05-0.03,0.09-0.05c0.06-0.04,0.13-0.08,0.19-0.12c0.05-0.03,0.1-0.07,0.15-0.1c0.06-0.04,0.12-0.08,0.18-0.12
				c0.05-0.04,0.1-0.07,0.15-0.11c0.06-0.04,0.11-0.08,0.17-0.12c0.05-0.04,0.1-0.07,0.15-0.11c0.06-0.04,0.11-0.08,0.17-0.13
				c0.04-0.04,0.1-0.07,0.14-0.11c0.06-0.05,0.12-0.09,0.18-0.14c0.04-0.04,0.09-0.07,0.14-0.11c0.1-0.08,0.2-0.16,0.3-0.24
				c0.05-0.04,0.09-0.08,0.13-0.12c0.05-0.04,0.12-0.1,0.17-0.14c0.05-0.05,0.1-0.08,0.14-0.13c0.05-0.05,0.1-0.09,0.15-0.14
				c0.05-0.05,0.1-0.09,0.14-0.14c0.04-0.05,0.1-0.09,0.15-0.14c0.04-0.05,0.1-0.09,0.14-0.14l0.14-0.14
				c0.05-0.05,0.1-0.1,0.15-0.15c0.04-0.05,0.09-0.09,0.14-0.14c0.04-0.05,0.09-0.1,0.14-0.14c0.04-0.04,0.08-0.09,0.13-0.14
				c0.05-0.05,0.09-0.1,0.14-0.15c0.05-0.05,0.1-0.11,0.15-0.17c0.08-0.09,0.16-0.18,0.23-0.27c0.04-0.04,0.08-0.09,0.11-0.14
				c0.04-0.05,0.09-0.11,0.14-0.16c0.04-0.05,0.08-0.09,0.11-0.14c0.05-0.05,0.09-0.12,0.13-0.17c0.04-0.04,0.07-0.09,0.11-0.14
				c0.04-0.06,0.08-0.11,0.13-0.18c0.04-0.05,0.07-0.09,0.11-0.14c0.02-0.03,0.05-0.06,0.06-0.09c0.04-0.05,0.07-0.1,0.11-0.15
				c0.04-0.05,0.07-0.1,0.11-0.15c0.05-0.07,0.09-0.15,0.14-0.21c0.03-0.04,0.05-0.08,0.08-0.12c0.01-0.02,0.02-0.04,0.03-0.05
				c0.04-0.07,0.09-0.14,0.14-0.21c0.02-0.04,0.05-0.08,0.08-0.12c0.08-0.12,0.15-0.25,0.22-0.37c0.07-0.12,0.14-0.25,0.21-0.37
				c0.02-0.04,0.04-0.08,0.07-0.12c0.05-0.08,0.09-0.17,0.14-0.25c0.02-0.04,0.04-0.1,0.08-0.14c0.04-0.08,0.08-0.15,0.11-0.24
				c0.02-0.05,0.04-0.1,0.08-0.15c0.04-0.07,0.07-0.15,0.11-0.23c0.02-0.05,0.05-0.1,0.07-0.15c0.04-0.08,0.07-0.16,0.11-0.24
				c0.02-0.04,0.05-0.1,0.06-0.14c0.04-0.09,0.07-0.18,0.11-0.27c0.02-0.04,0.03-0.08,0.05-0.12c0.05-0.13,0.1-0.26,0.14-0.39
				c0.01-0.01,0.01-0.02,0.02-0.03c0.04-0.12,0.08-0.23,0.12-0.36c0.02-0.04,0.03-0.09,0.05-0.13c0.03-0.08,0.05-0.18,0.08-0.26
				c0.02-0.05,0.03-0.11,0.05-0.15c0.02-0.07,0.04-0.14,0.06-0.21c0.01-0.01,0.01-0.03,0.02-0.05c0.01-0.03,0.02-0.06,0.03-0.1
				c0.01-0.03,0.01-0.06,0.02-0.09c0.02-0.08,0.04-0.15,0.06-0.23c0-0.01,0.01-0.02,0.01-0.03c0.01-0.03,0.01-0.07,0.02-0.1
				c0.05-0.21,0.1-0.42,0.15-0.63v-0.01C542.22,189.25,538.81,187.35,535.03,187.06"/>
			<path clip-path="url(#SVGID_8_)" fill="#027C68" d="M529.37,181.02c0.31,0.09,0.62,0.21,0.93,0.34c0.05,0.02,0.11,0.05,0.17,0.08
				c0.01,0,0.02,0.01,0.02,0.01c0.78,0.37,1.5,0.84,2.14,1.44c0.01,0.01,0.02,0.01,0.02,0.02c0.04,0.04,0.08,0.07,0.12,0.11
				c0.02,0.02,0.04,0.05,0.07,0.07c0.02,0.02,0.05,0.05,0.07,0.07c0.04,0.04,0.08,0.08,0.11,0.11c0.01,0.01,0.02,0.01,0.02,0.02
				c0.64,0.68,1.15,1.47,1.52,2.3c0.01,0.02,0.02,0.03,0.02,0.05c0.03,0.08,0.06,0.15,0.09,0.23c0.02,0.04,0.03,0.08,0.05,0.12
				c0.01,0.03,0.02,0.07,0.04,0.11c0.11,0.32,0.21,0.64,0.29,0.96c3.77,0.28,7.19,2.18,9.08,5.45c0.23-1.13,0.36-2.29,0.36-3.46
				v-0.03v-0.31v-0.08v-0.01v-0.08v-0.09c0-0.08-0.01-0.15-0.01-0.23c0-0.06-0.01-0.12-0.01-0.18c-0.01-0.07-0.01-0.14-0.02-0.21
				c-0.01-0.06-0.01-0.12-0.02-0.18c-0.01-0.07-0.01-0.15-0.01-0.21c-0.01-0.06-0.01-0.12-0.02-0.18c-0.01-0.07-0.02-0.15-0.02-0.21
				c-0.01-0.06-0.01-0.12-0.02-0.18c-0.01-0.07-0.02-0.15-0.03-0.22c-0.01-0.05-0.02-0.11-0.02-0.17c-0.02-0.12-0.04-0.25-0.06-0.37
				c-0.01-0.05-0.02-0.11-0.03-0.17c-0.02-0.08-0.02-0.15-0.04-0.22c-0.02-0.06-0.02-0.13-0.04-0.19c-0.02-0.07-0.02-0.13-0.04-0.2
				c-0.02-0.06-0.03-0.13-0.04-0.19c-0.02-0.06-0.03-0.13-0.05-0.19c-0.02-0.07-0.03-0.13-0.05-0.2c-0.01-0.06-0.03-0.12-0.05-0.18
				c-0.02-0.07-0.03-0.13-0.05-0.2c-0.01-0.06-0.03-0.12-0.05-0.18c-0.01-0.07-0.04-0.13-0.05-0.2c-0.01-0.06-0.04-0.12-0.05-0.18
				c-0.02-0.07-0.04-0.13-0.06-0.2c-0.02-0.07-0.05-0.14-0.07-0.21c-0.04-0.11-0.08-0.23-0.11-0.33c-0.02-0.05-0.04-0.11-0.06-0.17
				c-0.02-0.07-0.05-0.14-0.08-0.2c-0.02-0.05-0.05-0.11-0.06-0.17c-0.02-0.07-0.05-0.14-0.08-0.2c-0.02-0.05-0.05-0.11-0.07-0.16
				c-0.03-0.07-0.05-0.14-0.08-0.2c-0.02-0.05-0.05-0.11-0.07-0.16c-0.02-0.03-0.03-0.07-0.05-0.1c-0.02-0.05-0.05-0.11-0.08-0.17
				c-0.02-0.05-0.05-0.11-0.08-0.17c-0.04-0.08-0.08-0.15-0.11-0.23c-0.02-0.04-0.05-0.09-0.07-0.14c-0.01-0.01-0.02-0.04-0.03-0.05
				c-0.04-0.08-0.08-0.15-0.11-0.22c-0.02-0.05-0.04-0.08-0.07-0.13c-0.07-0.13-0.14-0.25-0.21-0.38c-0.07-0.12-0.14-0.24-0.22-0.36
				c-0.02-0.04-0.05-0.08-0.08-0.11c-0.05-0.08-0.1-0.16-0.15-0.24c-0.03-0.05-0.06-0.09-0.09-0.14c-0.05-0.07-0.1-0.14-0.15-0.22
				c-0.03-0.04-0.06-0.09-0.1-0.14c-0.05-0.07-0.1-0.14-0.14-0.21c-0.03-0.05-0.07-0.09-0.1-0.14c-0.05-0.07-0.1-0.14-0.15-0.21
				c-0.03-0.04-0.06-0.08-0.1-0.13c-0.06-0.08-0.11-0.15-0.17-0.22c-0.03-0.04-0.05-0.07-0.08-0.11c-0.08-0.11-0.18-0.21-0.26-0.32
				c-0.01-0.01-0.01-0.01-0.02-0.03c-0.08-0.1-0.16-0.19-0.24-0.28c-0.03-0.04-0.06-0.07-0.09-0.11c-0.06-0.07-0.12-0.14-0.18-0.2
				c-0.04-0.04-0.08-0.08-0.11-0.11c-0.05-0.05-0.1-0.11-0.15-0.15c-0.01-0.01-0.02-0.02-0.03-0.03c-0.02-0.02-0.05-0.05-0.07-0.07
				c-0.02-0.02-0.05-0.05-0.07-0.07c-0.05-0.05-0.11-0.11-0.17-0.17c-0.01-0.01-0.02-0.02-0.02-0.02c-0.02-0.02-0.05-0.04-0.08-0.07
				c-0.15-0.15-0.31-0.3-0.48-0.44h-0.01C534.86,175.9,531.5,177.91,529.37,181.02"/>
			<path clip-path="url(#SVGID_8_)" fill="#00B199" d="M521.28,182.96c0.23-0.23,0.49-0.43,0.76-0.63c0.05-0.04,0.1-0.07,0.15-0.11
				c0.01-0.01,0.02-0.01,0.02-0.02c0.7-0.49,1.48-0.87,2.32-1.13c0.01,0,0.02-0.01,0.03-0.01c0.05-0.01,0.11-0.03,0.16-0.04
				c0.03-0.01,0.06-0.01,0.09-0.02c0.03-0.01,0.06-0.02,0.09-0.02c0.05-0.02,0.11-0.02,0.16-0.04c0.01,0,0.02-0.01,0.03-0.01
				c0.91-0.21,1.85-0.26,2.75-0.16c0.02,0,0.04,0,0.05,0.01c0.08,0.01,0.16,0.02,0.24,0.03c0.04,0.01,0.08,0.01,0.12,0.02
				c0.04,0.01,0.07,0.01,0.11,0.01c0.33,0.06,0.65,0.14,0.97,0.23c2.13-3.12,5.49-5.13,9.27-5.13c-0.87-0.77-1.81-1.46-2.82-2.05
				c-0.01-0.01-0.02-0.01-0.02-0.01c-0.09-0.05-0.18-0.11-0.27-0.15c-0.02-0.01-0.05-0.02-0.07-0.04c-0.01,0-0.01-0.01-0.01-0.01
				c-0.02-0.02-0.05-0.02-0.07-0.04c-0.03-0.01-0.05-0.03-0.08-0.04c-0.07-0.04-0.14-0.07-0.2-0.11c-0.05-0.03-0.11-0.05-0.16-0.08
				c-0.06-0.03-0.13-0.07-0.19-0.1c-0.05-0.03-0.11-0.05-0.17-0.08c-0.06-0.03-0.13-0.06-0.19-0.09c-0.05-0.02-0.11-0.05-0.17-0.08
				c-0.07-0.03-0.13-0.06-0.2-0.08c-0.05-0.02-0.11-0.04-0.17-0.07c-0.07-0.03-0.14-0.06-0.21-0.08c-0.05-0.02-0.11-0.05-0.16-0.07
				c-0.11-0.05-0.24-0.09-0.35-0.14c-0.05-0.02-0.11-0.04-0.16-0.06c-0.07-0.02-0.14-0.05-0.21-0.08c-0.06-0.02-0.12-0.04-0.18-0.06
				c-0.06-0.02-0.13-0.04-0.19-0.06c-0.06-0.02-0.13-0.04-0.19-0.06s-0.12-0.04-0.19-0.06c-0.06-0.02-0.13-0.04-0.19-0.05
				c-0.06-0.01-0.12-0.04-0.18-0.05c-0.07-0.02-0.13-0.04-0.2-0.05c-0.06-0.01-0.12-0.03-0.18-0.05c-0.07-0.01-0.13-0.03-0.2-0.04
				c-0.06-0.01-0.12-0.03-0.18-0.04c-0.07-0.02-0.13-0.03-0.2-0.05c-0.08-0.01-0.15-0.03-0.22-0.05c-0.11-0.02-0.24-0.04-0.35-0.07
				c-0.06-0.01-0.11-0.02-0.17-0.03c-0.07-0.01-0.14-0.02-0.21-0.04c-0.06-0.01-0.12-0.01-0.18-0.03c-0.07-0.01-0.14-0.02-0.21-0.03
				c-0.06-0.01-0.11-0.01-0.17-0.02c-0.07-0.01-0.14-0.01-0.21-0.02c-0.06-0.01-0.11-0.01-0.18-0.01c-0.04,0-0.08-0.01-0.11-0.01
				c-0.06-0.01-0.12-0.01-0.18-0.01c-0.06-0.01-0.12-0.01-0.19-0.01c-0.08-0.01-0.17-0.01-0.26-0.02c-0.05,0-0.1-0.01-0.15-0.01
				h-0.06c-0.08,0-0.17-0.01-0.25-0.01c-0.05,0-0.1-0.01-0.14-0.01c-0.14,0-0.29-0.01-0.43-0.01c-0.14,0-0.28,0-0.42,0.01
				c-0.05,0-0.09,0-0.14,0.01c-0.1,0-0.19,0.01-0.29,0.01c-0.05,0-0.11,0.01-0.16,0.01c-0.09,0.01-0.17,0.01-0.26,0.02
				c-0.05,0.01-0.12,0.01-0.17,0.01c-0.08,0.01-0.17,0.01-0.25,0.02c-0.05,0.01-0.11,0.01-0.17,0.01c-0.08,0.01-0.16,0.02-0.24,0.03
				c-0.05,0.01-0.1,0.01-0.14,0.02c-0.1,0.02-0.21,0.03-0.31,0.04c-0.05,0.01-0.09,0.01-0.13,0.01c-0.14,0.02-0.27,0.05-0.41,0.07
				c-0.01,0-0.02,0.01-0.04,0.01c-0.12,0.02-0.24,0.04-0.37,0.07c-0.04,0.01-0.09,0.02-0.14,0.03c-0.09,0.01-0.17,0.04-0.27,0.06
				c-0.05,0.01-0.11,0.02-0.16,0.04c-0.07,0.01-0.14,0.03-0.21,0.05c-0.02,0-0.03,0.01-0.05,0.01c-0.03,0.01-0.07,0.01-0.1,0.02
				c-0.03,0.01-0.06,0.01-0.09,0.02c-0.08,0.02-0.15,0.04-0.23,0.06c-0.01,0-0.02,0.01-0.03,0.01c-0.03,0.01-0.07,0.02-0.1,0.03
				c-0.21,0.06-0.41,0.12-0.62,0.19l-0.01,0.01C519.58,175.65,519.64,179.56,521.28,182.96"/>
		</g>
	</g>
</g>
<circle fill="#FFFFFF" stroke="#DDE1E6" stroke-miterlimit="10" cx="60" cy="189" r="32"/>
<text transform="matrix(0.9998 0.02 -0.02 0.9998 17.4064 238.6622)" font-family="'IBMPlexSans'" font-size="14px">Issue Tracker</text>
<g>
	<circle fill="#FFFFFF" stroke="#DDE1E6" stroke-miterlimit="10" cx="527" cy="50" r="32"/>
	<g>
		<g>
			<defs>
				<rect id="SVGID_9_" x="507" y="30" width="40" height="40"/>
			</defs>
			<clipPath id="SVGID_10_">
				<use xlink:href="#SVGID_9_"  overflow="visible"/>
			</clipPath>
			<g clip-path="url(#SVGID_10_)">
				<defs>
					<rect id="SVGID_11_" x="507" y="30" width="40" height="40"/>
				</defs>
				<clipPath id="SVGID_12_">
					<use xlink:href="#SVGID_11_"  overflow="visible"/>
				</clipPath>
				<path clip-path="url(#SVGID_12_)" fill="#243238" d="M518.89,51.87c-0.08-0.32-0.13-0.65-0.17-0.98
					c-0.01-0.06-0.02-0.12-0.02-0.18v-0.02c-0.08-0.85-0.01-1.72,0.18-2.57c0-0.01,0.01-0.02,0.01-0.03
					c0.02-0.05,0.02-0.11,0.04-0.16c0.01-0.03,0.02-0.06,0.02-0.09c0.01-0.03,0.01-0.06,0.02-0.09c0.02-0.05,0.03-0.11,0.05-0.16
					c0-0.01,0.01-0.01,0.01-0.03c0.27-0.9,0.69-1.72,1.24-2.46c0.01-0.02,0.02-0.03,0.03-0.05c0.05-0.07,0.1-0.13,0.15-0.2
					c0.02-0.03,0.05-0.07,0.08-0.1c0.02-0.03,0.05-0.05,0.07-0.08c0.21-0.26,0.44-0.5,0.68-0.73c-1.64-3.4-1.7-7.3,0.19-10.57
					c-1.1,0.36-2.17,0.83-3.18,1.41c-0.01,0.01-0.02,0.01-0.02,0.02c-0.09,0.05-0.18,0.11-0.27,0.16c-0.02,0.01-0.05,0.03-0.07,0.04
					c-0.01,0-0.01,0.01-0.01,0.01c-0.02,0.01-0.05,0.02-0.06,0.04c-0.03,0.01-0.05,0.03-0.08,0.05c-0.06,0.04-0.13,0.08-0.19,0.12
					c-0.05,0.03-0.1,0.07-0.15,0.1c-0.06,0.04-0.12,0.07-0.18,0.12c-0.05,0.04-0.1,0.07-0.15,0.11c-0.06,0.04-0.11,0.08-0.17,0.12
					c-0.05,0.04-0.1,0.07-0.15,0.11c-0.06,0.04-0.11,0.08-0.17,0.13c-0.05,0.04-0.1,0.07-0.15,0.11c-0.06,0.04-0.12,0.09-0.17,0.14
					c-0.04,0.04-0.09,0.07-0.14,0.11c-0.1,0.08-0.2,0.16-0.3,0.23c-0.05,0.04-0.09,0.08-0.13,0.11c-0.05,0.04-0.11,0.1-0.17,0.15
					c-0.05,0.05-0.1,0.08-0.14,0.13c-0.05,0.05-0.1,0.09-0.15,0.14c-0.04,0.05-0.1,0.09-0.14,0.14c-0.05,0.05-0.1,0.09-0.15,0.14
					s-0.1,0.09-0.15,0.14c-0.04,0.05-0.09,0.09-0.14,0.14c-0.04,0.05-0.1,0.1-0.14,0.15c-0.05,0.05-0.09,0.09-0.14,0.14
					c-0.05,0.05-0.09,0.1-0.14,0.15c-0.05,0.05-0.08,0.09-0.13,0.14c-0.05,0.05-0.09,0.1-0.14,0.15c-0.05,0.05-0.1,0.11-0.15,0.17
					c-0.08,0.09-0.16,0.18-0.23,0.27c-0.04,0.04-0.08,0.09-0.11,0.14c-0.05,0.05-0.09,0.11-0.14,0.17
					c-0.04,0.05-0.08,0.09-0.11,0.14c-0.05,0.05-0.09,0.11-0.13,0.17c-0.04,0.05-0.07,0.09-0.11,0.14
					c-0.04,0.06-0.08,0.11-0.13,0.17c-0.04,0.05-0.07,0.09-0.11,0.14c-0.02,0.03-0.05,0.06-0.06,0.09c-0.04,0.05-0.07,0.1-0.11,0.15
					c-0.04,0.05-0.07,0.1-0.11,0.15c-0.05,0.07-0.09,0.15-0.15,0.21c-0.03,0.04-0.05,0.08-0.08,0.12c-0.01,0.01-0.02,0.04-0.03,0.05
					c-0.04,0.07-0.09,0.14-0.14,0.21c-0.02,0.04-0.05,0.08-0.07,0.12c-0.08,0.12-0.15,0.25-0.22,0.37c-0.07,0.12-0.14,0.25-0.2,0.37
					c-0.02,0.04-0.05,0.08-0.07,0.12c-0.05,0.08-0.09,0.17-0.14,0.25c-0.02,0.05-0.05,0.1-0.08,0.14c-0.04,0.08-0.08,0.15-0.11,0.24
					c-0.02,0.05-0.04,0.1-0.08,0.15c-0.04,0.08-0.07,0.15-0.11,0.23c-0.02,0.05-0.05,0.1-0.07,0.15c-0.04,0.08-0.07,0.16-0.11,0.24
					c-0.02,0.05-0.05,0.1-0.06,0.14c-0.04,0.09-0.07,0.17-0.11,0.27c-0.01,0.04-0.03,0.08-0.04,0.12c-0.05,0.13-0.1,0.26-0.15,0.39
					c-0.01,0.01-0.01,0.02-0.01,0.03c-0.05,0.12-0.08,0.24-0.12,0.36c-0.02,0.05-0.03,0.09-0.05,0.13
					c-0.03,0.08-0.05,0.17-0.08,0.26c-0.02,0.05-0.03,0.11-0.05,0.15c-0.02,0.07-0.04,0.14-0.06,0.21
					c-0.01,0.01-0.01,0.03-0.01,0.05c-0.01,0.03-0.02,0.06-0.03,0.1c-0.01,0.03-0.01,0.06-0.02,0.09c-0.02,0.08-0.04,0.15-0.06,0.23
					c0,0.01-0.01,0.02-0.01,0.03c-0.01,0.03-0.02,0.07-0.02,0.1c-0.05,0.21-0.1,0.42-0.15,0.63v0.01
					C511.7,49.69,515.13,51.59,518.89,51.87"/>
				<path clip-path="url(#SVGID_12_)" fill="#3B4B54" d="M524.63,57.9c-0.31-0.09-0.62-0.21-0.93-0.34
					c-0.05-0.02-0.11-0.05-0.17-0.08c-0.01,0-0.02-0.01-0.02-0.01c-0.78-0.36-1.5-0.84-2.14-1.44l-0.02-0.02
					c-0.04-0.04-0.08-0.08-0.12-0.11c-0.02-0.02-0.04-0.05-0.07-0.07c-0.02-0.02-0.05-0.05-0.07-0.07
					c-0.04-0.04-0.08-0.08-0.11-0.11c-0.01-0.01-0.02-0.01-0.02-0.02c-0.64-0.68-1.15-1.47-1.52-2.3c-0.01-0.02-0.02-0.03-0.02-0.05
					c-0.03-0.08-0.06-0.15-0.09-0.23c-0.02-0.04-0.03-0.08-0.05-0.11c-0.01-0.03-0.02-0.07-0.04-0.11
					c-0.11-0.32-0.21-0.64-0.29-0.96c-3.77-0.28-7.19-2.18-9.08-5.45c-0.24,1.13-0.36,2.3-0.36,3.46v0.03v0.31v0.08v0.01v0.08v0.09
					c0,0.08,0.01,0.15,0.01,0.23c0,0.06,0.01,0.12,0.01,0.18c0.01,0.07,0.01,0.15,0.02,0.21c0.01,0.06,0.01,0.12,0.01,0.18
					c0.01,0.07,0.01,0.15,0.02,0.21c0.01,0.06,0.01,0.12,0.01,0.18c0.01,0.07,0.02,0.15,0.02,0.21c0.01,0.06,0.01,0.12,0.02,0.18
					c0.01,0.08,0.02,0.15,0.03,0.22c0.01,0.05,0.01,0.11,0.02,0.17c0.02,0.12,0.04,0.25,0.06,0.37c0.01,0.05,0.02,0.11,0.03,0.17
					c0.02,0.08,0.02,0.14,0.04,0.22c0.01,0.06,0.02,0.13,0.04,0.19c0.02,0.07,0.02,0.13,0.04,0.2c0.02,0.06,0.03,0.13,0.05,0.19
					c0.02,0.06,0.03,0.13,0.05,0.19c0.02,0.07,0.03,0.13,0.05,0.2c0.02,0.06,0.03,0.12,0.05,0.18c0.01,0.07,0.03,0.13,0.05,0.2
					c0.01,0.06,0.03,0.12,0.05,0.18c0.01,0.07,0.04,0.13,0.05,0.2c0.02,0.06,0.04,0.12,0.05,0.18c0.02,0.07,0.04,0.13,0.06,0.2
					c0.02,0.07,0.04,0.15,0.07,0.21c0.04,0.11,0.08,0.23,0.11,0.33c0.02,0.05,0.04,0.11,0.06,0.17c0.02,0.07,0.05,0.14,0.08,0.2
					c0.02,0.05,0.05,0.11,0.06,0.17c0.02,0.07,0.05,0.14,0.08,0.2c0.02,0.05,0.05,0.11,0.07,0.16c0.03,0.07,0.05,0.14,0.08,0.2
					c0.02,0.05,0.05,0.11,0.07,0.16c0.01,0.03,0.03,0.07,0.04,0.1c0.02,0.05,0.05,0.11,0.08,0.17c0.02,0.05,0.05,0.11,0.08,0.17
					c0.04,0.08,0.08,0.15,0.11,0.23c0.02,0.04,0.05,0.09,0.07,0.14c0.01,0.01,0.01,0.04,0.03,0.05c0.04,0.08,0.08,0.15,0.11,0.22
					c0.02,0.04,0.04,0.08,0.07,0.13c0.07,0.13,0.14,0.25,0.21,0.38c0.07,0.12,0.14,0.24,0.22,0.37c0.02,0.04,0.05,0.07,0.08,0.11
					c0.05,0.08,0.1,0.16,0.15,0.24c0.03,0.05,0.06,0.09,0.09,0.14c0.05,0.08,0.1,0.14,0.15,0.22c0.03,0.04,0.06,0.09,0.1,0.14
					c0.05,0.07,0.1,0.14,0.14,0.2c0.03,0.05,0.07,0.09,0.1,0.14c0.05,0.07,0.1,0.14,0.15,0.21c0.03,0.04,0.06,0.08,0.1,0.13
					c0.06,0.08,0.11,0.15,0.17,0.22c0.03,0.04,0.05,0.07,0.08,0.11c0.08,0.11,0.18,0.21,0.26,0.32c0.01,0.01,0.01,0.02,0.02,0.03
					c0.08,0.1,0.16,0.19,0.24,0.28c0.03,0.04,0.06,0.07,0.09,0.11c0.06,0.07,0.12,0.14,0.18,0.2c0.04,0.04,0.08,0.08,0.11,0.11
					c0.05,0.05,0.1,0.11,0.15,0.15l0.03,0.03c0.02,0.02,0.05,0.04,0.07,0.07c0.02,0.02,0.05,0.05,0.07,0.07
					c0.05,0.05,0.11,0.11,0.17,0.17c0.01,0.01,0.02,0.01,0.02,0.02c0.02,0.02,0.05,0.05,0.08,0.07c0.15,0.15,0.31,0.29,0.48,0.44
					h0.01C519.14,63.03,522.5,61.02,524.63,57.9"/>
				<path clip-path="url(#SVGID_12_)" fill="#0883A5" d="M532.65,56.04c-0.24,0.23-0.49,0.43-0.76,0.63
					c-0.05,0.04-0.1,0.07-0.15,0.11c-0.01,0.01-0.02,0.01-0.02,0.01c-0.7,0.49-1.48,0.87-2.32,1.13c-0.01,0-0.02,0.01-0.03,0.01
					c-0.05,0.01-0.11,0.03-0.16,0.05c-0.03,0.01-0.06,0.01-0.09,0.02c-0.03,0.01-0.06,0.01-0.09,0.02
					c-0.05,0.01-0.11,0.02-0.16,0.04c-0.01,0-0.02,0.01-0.03,0.01c-0.91,0.21-1.85,0.26-2.75,0.16c-0.01,0-0.04,0-0.05-0.01
					c-0.08-0.01-0.16-0.02-0.24-0.03c-0.04-0.01-0.08-0.01-0.12-0.02c-0.04-0.01-0.07-0.02-0.11-0.02
					c-0.33-0.06-0.65-0.14-0.97-0.23c-2.13,3.12-5.49,5.13-9.27,5.13c0.87,0.78,1.81,1.46,2.82,2.05c0.01,0.01,0.01,0.01,0.02,0.02
					c0.09,0.05,0.18,0.11,0.27,0.15c0.02,0.01,0.05,0.02,0.07,0.04c0.01,0,0.01,0.01,0.02,0.01c0.02,0.02,0.04,0.02,0.07,0.04
					c0.03,0.01,0.05,0.03,0.08,0.04c0.07,0.04,0.14,0.07,0.2,0.11c0.05,0.03,0.11,0.05,0.16,0.08c0.06,0.03,0.13,0.07,0.19,0.1
					c0.05,0.03,0.11,0.05,0.17,0.08c0.06,0.03,0.13,0.06,0.19,0.09c0.05,0.02,0.12,0.05,0.17,0.08c0.07,0.03,0.13,0.06,0.2,0.08
					c0.05,0.02,0.11,0.05,0.17,0.08c0.07,0.03,0.14,0.06,0.21,0.08c0.05,0.02,0.11,0.05,0.16,0.07c0.11,0.04,0.24,0.09,0.35,0.14
					c0.05,0.02,0.11,0.04,0.16,0.06c0.07,0.02,0.14,0.05,0.21,0.08c0.06,0.02,0.12,0.04,0.18,0.06c0.06,0.02,0.13,0.04,0.19,0.06
					c0.06,0.02,0.13,0.04,0.19,0.06c0.06,0.02,0.12,0.04,0.19,0.06c0.06,0.02,0.13,0.04,0.19,0.05c0.06,0.01,0.12,0.04,0.18,0.05
					c0.07,0.01,0.13,0.04,0.2,0.05c0.06,0.02,0.12,0.03,0.18,0.04c0.07,0.02,0.13,0.03,0.2,0.05c0.06,0.01,0.12,0.03,0.18,0.05
					c0.07,0.02,0.13,0.03,0.2,0.05c0.08,0.01,0.14,0.03,0.22,0.05c0.11,0.02,0.24,0.04,0.35,0.07c0.06,0.01,0.11,0.02,0.18,0.03
					c0.07,0.01,0.14,0.02,0.21,0.04c0.06,0.01,0.11,0.01,0.17,0.03c0.07,0.01,0.15,0.02,0.21,0.03c0.06,0.01,0.11,0.01,0.17,0.02
					c0.07,0.01,0.15,0.02,0.21,0.02c0.06,0.01,0.11,0.02,0.17,0.02c0.04,0,0.08,0.01,0.11,0.01c0.06,0.01,0.12,0.01,0.18,0.01
					s0.12,0.01,0.19,0.02c0.08,0.01,0.17,0.01,0.26,0.01c0.05,0,0.1,0.01,0.15,0.01h0.06c0.08,0,0.17,0.01,0.25,0.01
					c0.04,0,0.1,0.01,0.14,0.01c0.15,0,0.29,0.01,0.43,0.01c0.14,0,0.28,0,0.42-0.01c0.05,0,0.09,0,0.14-0.01
					c0.1,0,0.19-0.01,0.29-0.01c0.05,0,0.11-0.01,0.16-0.01c0.08-0.01,0.18-0.01,0.26-0.01c0.05-0.01,0.11-0.01,0.17-0.02
					c0.08-0.01,0.17-0.01,0.25-0.02c0.05-0.01,0.11-0.01,0.17-0.02c0.08-0.01,0.16-0.02,0.24-0.03c0.05-0.01,0.1-0.01,0.14-0.02
					c0.1-0.02,0.21-0.03,0.31-0.04c0.05-0.01,0.09-0.01,0.13-0.01c0.14-0.02,0.27-0.04,0.41-0.07c0.02,0,0.02-0.01,0.04-0.01
					c0.12-0.02,0.24-0.05,0.37-0.07c0.05-0.01,0.09-0.02,0.14-0.03c0.09-0.01,0.18-0.04,0.27-0.06c0.05-0.01,0.11-0.02,0.16-0.04
					c0.07-0.02,0.14-0.03,0.21-0.05c0.01,0,0.03-0.01,0.04-0.01c0.03-0.01,0.07-0.01,0.1-0.02l0.09-0.02
					c0.08-0.02,0.15-0.04,0.23-0.06c0.01,0,0.02-0.01,0.03-0.01c0.03-0.01,0.07-0.02,0.1-0.03c0.2-0.06,0.41-0.12,0.62-0.19
					l0.01-0.01C534.36,63.35,534.29,59.44,532.65,56.04"/>
				<path clip-path="url(#SVGID_12_)" fill="#00AED1" d="M535.03,48.06c0.08,0.32,0.13,0.65,0.17,0.98
					c0.01,0.06,0.01,0.12,0.01,0.18v0.02c0.08,0.85,0.02,1.71-0.18,2.57c0,0.01-0.01,0.02-0.01,0.03c-0.01,0.05-0.02,0.11-0.04,0.16
					c-0.01,0.03-0.02,0.06-0.02,0.09c-0.01,0.03-0.01,0.06-0.02,0.09c-0.02,0.05-0.03,0.11-0.04,0.16c0,0.01-0.01,0.02-0.01,0.03
					c-0.27,0.89-0.69,1.72-1.24,2.46c-0.01,0.01-0.02,0.03-0.03,0.04c-0.05,0.07-0.1,0.13-0.15,0.2c-0.02,0.03-0.05,0.07-0.08,0.1
					c-0.02,0.03-0.05,0.05-0.07,0.08c-0.21,0.26-0.44,0.5-0.68,0.73c1.63,3.39,1.7,7.3-0.19,10.57c1.1-0.37,2.17-0.84,3.18-1.41
					c0.01-0.01,0.02-0.01,0.02-0.01c0.09-0.05,0.18-0.11,0.27-0.16c0.02-0.02,0.04-0.03,0.07-0.04c0.01,0,0.01-0.01,0.01-0.01
					c0.02-0.02,0.05-0.02,0.06-0.04c0.03-0.01,0.05-0.03,0.09-0.05c0.06-0.04,0.13-0.08,0.19-0.12c0.05-0.03,0.1-0.07,0.15-0.1
					c0.06-0.04,0.12-0.08,0.18-0.12c0.05-0.04,0.1-0.07,0.15-0.11c0.06-0.04,0.11-0.08,0.17-0.12c0.05-0.04,0.1-0.07,0.15-0.11
					c0.06-0.04,0.11-0.08,0.17-0.13c0.04-0.04,0.1-0.07,0.14-0.11c0.06-0.05,0.12-0.09,0.18-0.14c0.04-0.04,0.09-0.07,0.14-0.11
					c0.1-0.08,0.2-0.16,0.3-0.24c0.05-0.04,0.09-0.08,0.13-0.12c0.05-0.04,0.12-0.1,0.17-0.14c0.05-0.04,0.1-0.08,0.14-0.13
					c0.05-0.05,0.1-0.09,0.15-0.14c0.05-0.05,0.1-0.09,0.14-0.14c0.04-0.05,0.1-0.09,0.15-0.14c0.04-0.05,0.1-0.09,0.14-0.14
					l0.14-0.14c0.05-0.05,0.1-0.1,0.15-0.15c0.04-0.05,0.09-0.09,0.14-0.14c0.04-0.05,0.09-0.1,0.14-0.15
					c0.04-0.04,0.08-0.09,0.13-0.14c0.05-0.05,0.09-0.1,0.14-0.15c0.05-0.05,0.1-0.11,0.15-0.17c0.08-0.09,0.16-0.18,0.23-0.27
					c0.04-0.04,0.08-0.09,0.11-0.14c0.04-0.05,0.09-0.11,0.14-0.17c0.04-0.05,0.08-0.09,0.11-0.14c0.05-0.05,0.09-0.11,0.13-0.17
					c0.04-0.04,0.07-0.09,0.11-0.14c0.04-0.06,0.08-0.11,0.13-0.17c0.04-0.05,0.07-0.09,0.11-0.14c0.02-0.03,0.05-0.06,0.06-0.09
					c0.04-0.05,0.07-0.1,0.11-0.15c0.04-0.05,0.07-0.1,0.11-0.15c0.05-0.07,0.09-0.15,0.14-0.21c0.03-0.04,0.05-0.08,0.08-0.12
					c0.01-0.02,0.02-0.04,0.03-0.05c0.04-0.07,0.09-0.14,0.14-0.21c0.02-0.04,0.05-0.08,0.08-0.12c0.08-0.12,0.15-0.25,0.22-0.37
					c0.07-0.12,0.14-0.25,0.21-0.37c0.02-0.04,0.04-0.09,0.07-0.12c0.05-0.08,0.09-0.17,0.14-0.25c0.02-0.04,0.04-0.1,0.08-0.14
					c0.04-0.08,0.08-0.15,0.11-0.24c0.02-0.05,0.04-0.1,0.08-0.15c0.04-0.08,0.07-0.15,0.11-0.23c0.02-0.05,0.05-0.1,0.07-0.15
					c0.04-0.07,0.07-0.16,0.11-0.24c0.02-0.04,0.05-0.1,0.06-0.14c0.04-0.09,0.07-0.17,0.11-0.27c0.02-0.04,0.03-0.08,0.05-0.12
					c0.05-0.13,0.1-0.26,0.14-0.39c0.01-0.01,0.01-0.02,0.02-0.03c0.04-0.12,0.08-0.23,0.12-0.36c0.02-0.05,0.03-0.09,0.05-0.13
					c0.03-0.08,0.05-0.17,0.08-0.26c0.02-0.05,0.03-0.11,0.05-0.15c0.02-0.07,0.04-0.14,0.06-0.21c0.01-0.01,0.01-0.03,0.02-0.05
					c0.01-0.03,0.02-0.06,0.03-0.1c0.01-0.03,0.01-0.06,0.02-0.09c0.02-0.08,0.04-0.15,0.06-0.23c0-0.01,0.01-0.02,0.01-0.03
					c0.01-0.03,0.01-0.07,0.02-0.1c0.05-0.21,0.1-0.42,0.15-0.63v-0.01C542.22,50.25,538.81,48.35,535.03,48.06"/>
				<path clip-path="url(#SVGID_12_)" fill="#027C68" d="M529.37,42.02c0.31,0.09,0.62,0.21,0.93,0.34
					c0.05,0.02,0.11,0.05,0.17,0.08c0.01,0,0.02,0.01,0.02,0.01c0.78,0.37,1.5,0.84,2.14,1.44c0.01,0.01,0.02,0.01,0.02,0.02
					c0.04,0.04,0.08,0.07,0.12,0.11c0.02,0.02,0.04,0.05,0.07,0.07c0.02,0.02,0.05,0.05,0.07,0.07c0.04,0.04,0.08,0.08,0.11,0.11
					c0.01,0.01,0.02,0.01,0.02,0.02c0.64,0.68,1.15,1.47,1.52,2.3c0.01,0.02,0.02,0.03,0.02,0.05c0.03,0.08,0.06,0.15,0.09,0.23
					c0.02,0.04,0.03,0.08,0.05,0.12c0.01,0.03,0.02,0.07,0.04,0.11c0.11,0.32,0.21,0.64,0.29,0.96c3.77,0.28,7.19,2.18,9.08,5.45
					c0.23-1.13,0.36-2.29,0.36-3.46v-0.03V49.7v-0.08v-0.01v-0.08v-0.09c0-0.08-0.01-0.15-0.01-0.23c0-0.06-0.01-0.12-0.01-0.18
					c-0.01-0.07-0.01-0.14-0.02-0.21c-0.01-0.06-0.01-0.12-0.02-0.18c-0.01-0.07-0.01-0.15-0.01-0.21
					c-0.01-0.06-0.01-0.12-0.02-0.18c-0.01-0.07-0.02-0.15-0.02-0.21c-0.01-0.06-0.01-0.12-0.02-0.18
					c-0.01-0.08-0.02-0.15-0.03-0.22c-0.01-0.05-0.02-0.11-0.02-0.17c-0.02-0.12-0.04-0.25-0.06-0.37
					c-0.01-0.05-0.02-0.11-0.03-0.17c-0.02-0.08-0.02-0.15-0.04-0.22c-0.02-0.06-0.02-0.13-0.04-0.19c-0.02-0.07-0.02-0.13-0.04-0.2
					c-0.02-0.06-0.03-0.13-0.04-0.19c-0.02-0.06-0.03-0.13-0.05-0.19c-0.02-0.07-0.03-0.13-0.05-0.2c-0.01-0.06-0.03-0.12-0.05-0.18
					c-0.02-0.07-0.03-0.13-0.05-0.2c-0.01-0.06-0.03-0.12-0.05-0.18c-0.01-0.07-0.04-0.13-0.05-0.2c-0.01-0.06-0.04-0.12-0.05-0.18
					c-0.02-0.07-0.04-0.13-0.06-0.2c-0.02-0.07-0.05-0.15-0.07-0.21c-0.04-0.11-0.08-0.23-0.11-0.33c-0.02-0.05-0.04-0.11-0.06-0.17
					c-0.02-0.07-0.05-0.14-0.08-0.2c-0.02-0.05-0.05-0.11-0.06-0.17c-0.02-0.07-0.05-0.14-0.08-0.2c-0.02-0.05-0.05-0.11-0.07-0.16
					c-0.03-0.07-0.05-0.14-0.08-0.2c-0.02-0.05-0.05-0.11-0.07-0.16c-0.02-0.03-0.03-0.07-0.05-0.1c-0.02-0.05-0.05-0.11-0.08-0.17
					c-0.02-0.05-0.05-0.11-0.08-0.17c-0.04-0.08-0.08-0.15-0.11-0.23c-0.02-0.05-0.05-0.09-0.07-0.14
					c-0.01-0.01-0.02-0.04-0.03-0.05c-0.04-0.08-0.08-0.15-0.11-0.22c-0.02-0.05-0.04-0.08-0.07-0.13
					c-0.07-0.13-0.14-0.25-0.21-0.38c-0.07-0.12-0.14-0.24-0.22-0.36c-0.02-0.04-0.05-0.08-0.08-0.11c-0.05-0.08-0.1-0.16-0.15-0.24
					c-0.03-0.05-0.06-0.09-0.09-0.14c-0.05-0.08-0.1-0.14-0.15-0.22c-0.03-0.04-0.06-0.09-0.1-0.14c-0.05-0.07-0.1-0.14-0.14-0.2
					c-0.03-0.05-0.07-0.09-0.1-0.14c-0.05-0.07-0.1-0.14-0.15-0.2c-0.03-0.05-0.06-0.08-0.1-0.13c-0.06-0.08-0.11-0.15-0.17-0.22
					c-0.03-0.04-0.05-0.07-0.08-0.11c-0.08-0.11-0.18-0.21-0.26-0.32c-0.01-0.01-0.01-0.01-0.02-0.03c-0.08-0.1-0.16-0.19-0.24-0.28
					c-0.03-0.04-0.06-0.07-0.09-0.11c-0.06-0.07-0.12-0.14-0.18-0.2c-0.04-0.04-0.08-0.08-0.11-0.11c-0.05-0.05-0.1-0.11-0.15-0.15
					c-0.01-0.01-0.02-0.02-0.03-0.03c-0.02-0.02-0.05-0.05-0.07-0.07c-0.02-0.02-0.05-0.05-0.07-0.07
					c-0.05-0.05-0.11-0.11-0.17-0.17c-0.01-0.01-0.02-0.02-0.02-0.02c-0.02-0.02-0.05-0.05-0.08-0.07c-0.15-0.15-0.31-0.3-0.48-0.44
					h-0.01C534.86,36.9,531.5,38.91,529.37,42.02"/>
				<path clip-path="url(#SVGID_12_)" fill="#00B199" d="M521.28,43.96c0.23-0.23,0.49-0.43,0.76-0.63c0.05-0.04,0.1-0.07,0.15-0.11
					c0.01-0.01,0.02-0.01,0.02-0.02c0.7-0.49,1.48-0.87,2.32-1.13c0.01,0,0.02-0.01,0.03-0.01c0.05-0.01,0.11-0.03,0.16-0.04
					c0.03-0.01,0.06-0.01,0.09-0.02c0.03-0.01,0.06-0.02,0.09-0.02c0.05-0.02,0.11-0.02,0.16-0.04c0.01,0,0.02-0.01,0.03-0.01
					c0.91-0.21,1.85-0.26,2.75-0.16c0.02,0,0.04,0,0.05,0.01c0.08,0.01,0.16,0.02,0.24,0.03c0.04,0.01,0.08,0.02,0.12,0.02
					c0.04,0.01,0.07,0.02,0.11,0.02c0.33,0.06,0.65,0.14,0.97,0.23c2.13-3.12,5.49-5.13,9.27-5.13c-0.87-0.77-1.81-1.46-2.82-2.05
					c-0.01-0.01-0.02-0.01-0.02-0.02c-0.09-0.05-0.18-0.11-0.27-0.15c-0.02-0.01-0.05-0.02-0.07-0.04c-0.01,0-0.01-0.01-0.01-0.01
					c-0.02-0.02-0.05-0.02-0.07-0.04c-0.03-0.02-0.05-0.03-0.08-0.04c-0.07-0.04-0.14-0.07-0.2-0.11c-0.05-0.03-0.11-0.05-0.16-0.08
					c-0.06-0.03-0.13-0.07-0.19-0.1c-0.05-0.03-0.11-0.05-0.17-0.08c-0.06-0.03-0.13-0.06-0.19-0.09c-0.05-0.02-0.11-0.05-0.17-0.08
					c-0.07-0.03-0.13-0.06-0.2-0.08c-0.05-0.02-0.11-0.05-0.17-0.08c-0.07-0.03-0.14-0.06-0.21-0.08c-0.05-0.02-0.11-0.05-0.16-0.07
					c-0.11-0.05-0.24-0.09-0.35-0.14c-0.05-0.02-0.11-0.04-0.16-0.06c-0.07-0.02-0.14-0.05-0.21-0.08
					c-0.06-0.02-0.12-0.04-0.18-0.06c-0.06-0.02-0.13-0.04-0.19-0.06c-0.06-0.02-0.13-0.04-0.19-0.06s-0.12-0.04-0.19-0.06
					c-0.06-0.02-0.13-0.04-0.19-0.05c-0.06-0.01-0.12-0.04-0.18-0.05c-0.07-0.02-0.13-0.04-0.2-0.05c-0.06-0.01-0.12-0.03-0.18-0.05
					c-0.07-0.01-0.13-0.03-0.2-0.05c-0.06-0.01-0.12-0.03-0.18-0.04c-0.07-0.02-0.13-0.03-0.2-0.05c-0.08-0.01-0.15-0.03-0.22-0.05
					c-0.11-0.02-0.24-0.05-0.35-0.07c-0.06-0.01-0.11-0.02-0.17-0.03c-0.07-0.01-0.14-0.02-0.21-0.04
					c-0.06-0.01-0.12-0.01-0.18-0.03c-0.07-0.01-0.14-0.02-0.21-0.03c-0.06-0.01-0.11-0.01-0.17-0.02
					c-0.07-0.01-0.14-0.01-0.21-0.02c-0.06-0.01-0.11-0.02-0.18-0.02c-0.04,0-0.08-0.01-0.11-0.01c-0.06-0.01-0.12-0.01-0.18-0.02
					c-0.06-0.01-0.12-0.01-0.19-0.01c-0.08-0.01-0.17-0.01-0.26-0.02c-0.05,0-0.1-0.01-0.15-0.01h-0.06c-0.08,0-0.17-0.01-0.25-0.01
					c-0.05,0-0.1-0.01-0.14-0.01c-0.14,0-0.29-0.01-0.43-0.01c-0.14,0-0.28,0-0.42,0.01c-0.05,0-0.09,0-0.14,0.01
					c-0.1,0-0.19,0.01-0.29,0.01c-0.05,0-0.11,0.01-0.16,0.01c-0.09,0.01-0.17,0.01-0.26,0.02c-0.05,0.01-0.12,0.01-0.17,0.01
					c-0.08,0.01-0.17,0.02-0.25,0.02c-0.05,0.01-0.11,0.01-0.17,0.02c-0.08,0.01-0.16,0.02-0.24,0.03c-0.05,0.01-0.1,0.01-0.14,0.02
					c-0.1,0.02-0.21,0.03-0.31,0.04c-0.05,0.01-0.09,0.01-0.13,0.01c-0.14,0.02-0.27,0.05-0.41,0.07c-0.01,0-0.02,0.01-0.04,0.01
					c-0.12,0.02-0.24,0.04-0.37,0.07c-0.04,0.01-0.09,0.02-0.14,0.03c-0.09,0.01-0.17,0.04-0.27,0.06
					c-0.05,0.01-0.11,0.02-0.16,0.04c-0.07,0.02-0.14,0.03-0.21,0.05c-0.02,0-0.03,0.01-0.05,0.01c-0.03,0.01-0.07,0.01-0.1,0.02
					c-0.03,0.01-0.06,0.01-0.09,0.02c-0.08,0.02-0.15,0.04-0.23,0.06c-0.01,0-0.02,0.01-0.03,0.01c-0.03,0.01-0.07,0.02-0.1,0.03
					c-0.21,0.06-0.41,0.12-0.62,0.19l-0.01,0.01C519.58,36.65,519.64,40.56,521.28,43.96"/>
			</g>
		</g>
	</g>
</g>
<g>
	<path d="M285,316c-5,0-9,4-9,9c0,0.9,0.1,1.8,0.4,2.6L266,338v6h6l10.4-10.4c5.3,1.6,11-2,11.6-7.9c0.2-2.1-0.4-4.3-1.6-6
		C290.5,317.3,287.8,316,285,316z M285,332c-0.7,0-1.4-0.1-2-0.3l-1.1-0.3l-0.8,0.8l-3.2,3.2l-1.4-1.4l-1.4,1.4l1.4,1.4l-1.6,1.6
		l-1.4-1.4l-1.4,1.4l1.4,1.4l-2.2,2.2h-3.2v-3.2l9.8-9.8l0.8-0.8l-0.3-0.9c-1-3.3,0.4-6.9,3.4-8.4c4.6-2.3,10,0.7,10.2,6
		c0.1,1.4-0.3,2.8-1.1,4C289.5,330.9,287.3,332,285,332z"/>
	<circle cx="285.6" cy="323.5" r="2"/>
	<rect id="_Transparent_Rectangle__3_" x="264" y="314" fill="none" width="32" height="32"/>
</g>
<polyline fill="none" stroke="#4589FF" stroke-width="2" stroke-miterlimit="10" points="487,56.5 493,50.5 487,44.5 "/>
<polyline fill="none" stroke="#4589FF" stroke-width="2" stroke-miterlimit="10" points="487,336 493,330 487,324 "/>
<polyline fill="none" stroke="#4589FF" stroke-width="2" stroke-miterlimit="10" points="487,195.5 493,189.5 487,183.5 "/>
<g>
	<title>credentials</title>
	<path d="M369,336.34c2.21,0,4-1.79,4-4s-1.79-4-4-4s-4,1.79-4,4S366.79,336.34,369,336.34z M369,330.34c1.1,0,2,0.9,2,2
		c0,1.1-0.9,2-2,2s-2-0.9-2-2C367,331.23,367.9,330.34,369,330.34z"/>
	<rect x="367" y="320.34" width="4" height="2"/>
	<path d="M377,316.34h-16c-1.1,0-2,0.9-2,2v24c0,1.1,0.9,2,2,2h16c1.1,0,2-0.9,2-2v-24C379,317.24,378.1,316.34,377,316.34z
		 M373,342.34h-8v-2c0-0.55,0.45-1,1-1h6c0.55,0,1,0.45,1,1V342.34z M375,342.34v-2c0-1.66-1.34-3-3-3h-6c-1.66,0-3,1.34-3,3v2h-2
		v-24h16v24H375z"/>
	<rect id="_Transparent_Rectangle__1_" x="353" y="314.34" fill="none" width="32" height="32"/>
</g>
<g>
	<g>
		<path d="M540,324v-2h-1h-1v-1v-1h-1h-20h-1v1v1h-1h-1v2h-2v16h30v-16H540z M517,321h20v1h-20C517,322,517,321,517,321z M540,338
			h-26v-12h26V338z"/>
		<polygon points="530,333 531,333 531,332 531,331 530,331 530,332 524,332 524,331 523,331 523,332 523,333 524,333 		"/>
	</g>
</g>
<g>
	<g>
		<defs>
			<rect id="SVGID_13_" x="40" y="169" width="40" height="40"/>
		</defs>
		<clipPath id="SVGID_14_">
			<use xlink:href="#SVGID_13_"  overflow="visible"/>
		</clipPath>
		<g clip-path="url(#SVGID_14_)">
			<defs>
				<rect id="SVGID_15_" x="40" y="169" width="40" height="40"/>
			</defs>
			<clipPath id="SVGID_16_">
				<use xlink:href="#SVGID_15_"  overflow="visible"/>
			</clipPath>
			<path clip-path="url(#SVGID_16_)" fill="#243238" d="M51.89,190.87c-0.08-0.32-0.13-0.65-0.17-0.98
				c-0.01-0.06-0.01-0.12-0.01-0.18v-0.02c-0.08-0.85-0.01-1.71,0.18-2.57c0-0.01,0.01-0.01,0.01-0.03
				c0.01-0.05,0.02-0.11,0.04-0.16c0.01-0.03,0.01-0.06,0.02-0.09c0.01-0.03,0.01-0.06,0.02-0.09c0.02-0.05,0.03-0.11,0.05-0.16
				c0-0.01,0.01-0.01,0.01-0.03c0.27-0.9,0.69-1.72,1.24-2.46c0.01-0.02,0.02-0.03,0.03-0.04c0.04-0.07,0.1-0.13,0.15-0.2
				c0.02-0.03,0.05-0.07,0.08-0.1c0.02-0.03,0.05-0.05,0.07-0.08c0.21-0.26,0.44-0.5,0.68-0.73c-1.63-3.4-1.7-7.3,0.19-10.57
				c-1.1,0.36-2.17,0.84-3.19,1.41c-0.01,0.01-0.01,0.01-0.02,0.01c-0.09,0.05-0.18,0.11-0.27,0.16c-0.02,0.01-0.05,0.03-0.07,0.04
				c-0.01,0-0.01,0.01-0.01,0.01c-0.02,0.01-0.04,0.02-0.06,0.04c-0.03,0.01-0.05,0.03-0.08,0.05c-0.06,0.04-0.13,0.08-0.19,0.12
				c-0.05,0.03-0.1,0.07-0.15,0.1c-0.06,0.04-0.12,0.07-0.18,0.12c-0.05,0.04-0.1,0.07-0.15,0.11c-0.06,0.04-0.11,0.08-0.18,0.12
				c-0.05,0.04-0.1,0.07-0.15,0.11c-0.06,0.04-0.11,0.08-0.17,0.13c-0.05,0.04-0.1,0.07-0.15,0.11c-0.06,0.04-0.12,0.09-0.17,0.14
				c-0.05,0.04-0.09,0.07-0.14,0.11c-0.1,0.08-0.2,0.16-0.3,0.24c-0.05,0.04-0.09,0.08-0.13,0.11c-0.05,0.04-0.11,0.1-0.17,0.15
				c-0.05,0.04-0.1,0.08-0.14,0.13c-0.05,0.04-0.1,0.09-0.15,0.14c-0.05,0.05-0.1,0.09-0.14,0.14c-0.04,0.05-0.1,0.09-0.14,0.14
				c-0.05,0.04-0.1,0.09-0.15,0.14c-0.05,0.05-0.09,0.09-0.14,0.14c-0.05,0.05-0.1,0.1-0.14,0.14c-0.05,0.04-0.09,0.09-0.14,0.14
				c-0.05,0.05-0.09,0.1-0.14,0.14c-0.05,0.04-0.08,0.09-0.13,0.14c-0.05,0.05-0.09,0.1-0.14,0.15c-0.05,0.05-0.1,0.12-0.15,0.17
				c-0.07,0.09-0.16,0.18-0.23,0.27c-0.04,0.04-0.08,0.09-0.11,0.14c-0.05,0.05-0.09,0.11-0.14,0.17c-0.04,0.05-0.07,0.09-0.11,0.14
				c-0.05,0.05-0.09,0.11-0.13,0.17c-0.04,0.04-0.07,0.09-0.11,0.14c-0.05,0.06-0.08,0.11-0.13,0.18c-0.04,0.04-0.07,0.09-0.11,0.14
				c-0.02,0.03-0.05,0.06-0.06,0.09c-0.04,0.05-0.07,0.1-0.11,0.15c-0.04,0.05-0.07,0.1-0.11,0.15c-0.05,0.07-0.09,0.15-0.15,0.21
				c-0.03,0.04-0.05,0.08-0.08,0.12c-0.01,0.01-0.02,0.04-0.03,0.05c-0.04,0.07-0.09,0.14-0.14,0.21c-0.02,0.04-0.05,0.08-0.08,0.12
				c-0.08,0.12-0.15,0.25-0.22,0.37c-0.07,0.12-0.14,0.25-0.2,0.37c-0.02,0.04-0.05,0.08-0.07,0.12c-0.05,0.08-0.09,0.17-0.14,0.25
				c-0.02,0.04-0.05,0.1-0.08,0.14c-0.04,0.08-0.08,0.15-0.11,0.24c-0.02,0.05-0.05,0.1-0.08,0.15c-0.04,0.08-0.07,0.15-0.11,0.23
				c-0.02,0.05-0.05,0.1-0.07,0.15c-0.04,0.08-0.07,0.16-0.11,0.23c-0.02,0.05-0.05,0.1-0.06,0.14c-0.04,0.09-0.07,0.18-0.11,0.27
				c-0.01,0.04-0.03,0.08-0.04,0.12c-0.05,0.13-0.1,0.26-0.15,0.39c-0.01,0.01-0.01,0.02-0.01,0.03c-0.05,0.12-0.08,0.24-0.12,0.36
				c-0.01,0.05-0.03,0.09-0.05,0.13c-0.03,0.08-0.05,0.17-0.08,0.26c-0.02,0.05-0.03,0.11-0.05,0.15c-0.02,0.07-0.04,0.14-0.06,0.21
				c-0.01,0.01-0.01,0.03-0.01,0.04c-0.01,0.03-0.01,0.06-0.03,0.1c-0.01,0.03-0.01,0.06-0.02,0.09c-0.02,0.08-0.04,0.15-0.06,0.23
				c0,0.01-0.01,0.02-0.01,0.03c-0.01,0.03-0.01,0.07-0.02,0.1c-0.05,0.21-0.1,0.42-0.15,0.63v0.01
				C44.7,188.69,48.13,190.59,51.89,190.87"/>
			<path clip-path="url(#SVGID_16_)" fill="#3B4B54" d="M57.63,196.9c-0.31-0.09-0.62-0.21-0.93-0.34
				c-0.05-0.02-0.11-0.05-0.17-0.08c-0.01,0-0.02-0.01-0.02-0.01c-0.78-0.36-1.5-0.84-2.14-1.44l-0.02-0.02
				c-0.04-0.04-0.08-0.07-0.12-0.11c-0.02-0.02-0.04-0.05-0.07-0.07c-0.02-0.02-0.05-0.05-0.07-0.07c-0.04-0.04-0.08-0.08-0.12-0.11
				c-0.01-0.01-0.01-0.01-0.02-0.02c-0.64-0.68-1.15-1.47-1.52-2.3c-0.01-0.01-0.01-0.03-0.02-0.04c-0.03-0.08-0.06-0.15-0.09-0.23
				c-0.02-0.04-0.03-0.07-0.05-0.11c-0.01-0.03-0.02-0.07-0.04-0.11c-0.11-0.32-0.21-0.64-0.29-0.96c-3.77-0.28-7.19-2.18-9.08-5.45
				c-0.24,1.13-0.36,2.29-0.37,3.46v0.03v0.31v0.08v0.01v0.08v0.09c0,0.07,0.01,0.15,0.01,0.23c0,0.06,0.01,0.12,0.01,0.18
				c0.01,0.07,0.01,0.15,0.02,0.21c0.01,0.06,0.01,0.12,0.01,0.18c0.01,0.07,0.01,0.14,0.02,0.21c0.01,0.06,0.01,0.12,0.01,0.18
				c0.01,0.07,0.02,0.15,0.02,0.21c0.01,0.06,0.01,0.12,0.02,0.18c0.01,0.07,0.02,0.15,0.03,0.22c0.01,0.05,0.01,0.11,0.02,0.17
				c0.02,0.12,0.04,0.25,0.06,0.37c0.01,0.05,0.02,0.11,0.03,0.17c0.02,0.08,0.02,0.14,0.04,0.22c0.01,0.06,0.02,0.13,0.04,0.19
				c0.02,0.07,0.02,0.13,0.04,0.2c0.01,0.06,0.03,0.13,0.04,0.19c0.02,0.06,0.03,0.13,0.05,0.19c0.02,0.07,0.03,0.13,0.05,0.2
				c0.01,0.06,0.03,0.12,0.05,0.18c0.01,0.07,0.03,0.13,0.05,0.2c0.01,0.06,0.03,0.12,0.05,0.18c0.01,0.07,0.04,0.13,0.05,0.2
				c0.01,0.06,0.04,0.12,0.05,0.18c0.02,0.07,0.04,0.13,0.06,0.2c0.02,0.07,0.04,0.15,0.07,0.21c0.04,0.12,0.08,0.23,0.11,0.34
				c0.02,0.05,0.04,0.11,0.06,0.17c0.02,0.07,0.05,0.14,0.08,0.2c0.02,0.05,0.05,0.11,0.06,0.17c0.02,0.07,0.05,0.14,0.08,0.2
				c0.02,0.05,0.05,0.11,0.07,0.16c0.03,0.07,0.05,0.14,0.08,0.2c0.02,0.05,0.05,0.11,0.07,0.16c0.02,0.03,0.03,0.07,0.05,0.1
				c0.02,0.05,0.05,0.11,0.08,0.17c0.02,0.05,0.05,0.11,0.08,0.17c0.04,0.07,0.08,0.15,0.11,0.23c0.02,0.04,0.05,0.09,0.07,0.14
				c0.01,0.01,0.01,0.04,0.03,0.05c0.04,0.07,0.08,0.15,0.11,0.22c0.02,0.05,0.05,0.08,0.07,0.13c0.07,0.13,0.14,0.25,0.21,0.38
				c0.07,0.12,0.14,0.24,0.22,0.36c0.02,0.04,0.05,0.08,0.08,0.11c0.05,0.08,0.1,0.16,0.15,0.24c0.03,0.04,0.06,0.09,0.09,0.14
				c0.04,0.08,0.1,0.14,0.15,0.22c0.03,0.04,0.06,0.09,0.1,0.14c0.05,0.07,0.1,0.14,0.14,0.21c0.03,0.04,0.07,0.09,0.1,0.14
				c0.05,0.07,0.1,0.14,0.15,0.21c0.03,0.04,0.06,0.08,0.1,0.13c0.06,0.08,0.11,0.15,0.17,0.22c0.03,0.04,0.05,0.07,0.08,0.11
				c0.08,0.11,0.17,0.21,0.26,0.32c0.01,0.01,0.01,0.01,0.02,0.03c0.08,0.1,0.16,0.19,0.24,0.28c0.03,0.04,0.06,0.07,0.09,0.11
				c0.06,0.07,0.12,0.14,0.18,0.2c0.04,0.04,0.08,0.08,0.12,0.11c0.04,0.05,0.1,0.11,0.15,0.15l0.03,0.03
				c0.02,0.02,0.05,0.04,0.07,0.07c0.02,0.02,0.05,0.04,0.07,0.07c0.05,0.05,0.11,0.11,0.17,0.17c0.01,0.01,0.02,0.01,0.02,0.02
				c0.02,0.02,0.05,0.04,0.08,0.07c0.15,0.15,0.31,0.29,0.48,0.44h0.01C52.14,202.03,55.5,200.02,57.63,196.9"/>
			<path clip-path="url(#SVGID_16_)" fill="#0883A5" d="M65.65,195.04c-0.24,0.23-0.5,0.43-0.76,0.63c-0.05,0.04-0.1,0.07-0.15,0.11
				c-0.01,0.01-0.02,0.01-0.02,0.01c-0.7,0.49-1.48,0.87-2.32,1.13c-0.01,0-0.02,0.01-0.03,0.01c-0.05,0.01-0.11,0.03-0.16,0.04
				c-0.03,0.01-0.06,0.01-0.09,0.02c-0.03,0.01-0.06,0.01-0.09,0.02c-0.05,0.01-0.11,0.02-0.16,0.04c-0.01,0-0.01,0.01-0.03,0.01
				c-0.91,0.21-1.85,0.26-2.76,0.16c-0.01,0-0.04,0-0.05-0.01c-0.08-0.01-0.16-0.02-0.24-0.03c-0.04-0.01-0.08-0.01-0.12-0.02
				c-0.04-0.01-0.07-0.02-0.11-0.02c-0.33-0.06-0.65-0.14-0.97-0.23c-2.13,3.12-5.49,5.13-9.27,5.13c0.87,0.78,1.81,1.46,2.82,2.05
				c0.01,0.01,0.01,0.01,0.02,0.02c0.09,0.05,0.18,0.11,0.27,0.15c0.02,0.01,0.05,0.02,0.07,0.04c0.01,0,0.01,0.01,0.01,0.01
				c0.02,0.02,0.05,0.02,0.07,0.04c0.03,0.01,0.05,0.03,0.08,0.04c0.07,0.04,0.14,0.07,0.2,0.11c0.05,0.03,0.11,0.05,0.16,0.09
				c0.06,0.03,0.13,0.07,0.19,0.1c0.05,0.03,0.11,0.05,0.17,0.08c0.06,0.03,0.13,0.06,0.19,0.09c0.05,0.02,0.11,0.05,0.17,0.08
				c0.07,0.03,0.13,0.06,0.2,0.08c0.05,0.02,0.11,0.05,0.17,0.08c0.07,0.03,0.14,0.06,0.21,0.08c0.05,0.02,0.11,0.04,0.16,0.07
				c0.11,0.04,0.24,0.09,0.35,0.14c0.05,0.02,0.11,0.04,0.16,0.06c0.07,0.02,0.14,0.05,0.21,0.08c0.06,0.02,0.12,0.04,0.18,0.06
				c0.06,0.02,0.13,0.04,0.19,0.06c0.06,0.02,0.13,0.04,0.19,0.06c0.06,0.02,0.12,0.04,0.19,0.06c0.06,0.02,0.13,0.04,0.19,0.05
				c0.06,0.01,0.12,0.04,0.18,0.05c0.07,0.01,0.13,0.04,0.2,0.05c0.06,0.02,0.12,0.03,0.18,0.04c0.07,0.02,0.13,0.03,0.2,0.05
				c0.06,0.01,0.12,0.03,0.18,0.04c0.07,0.02,0.13,0.03,0.2,0.05c0.08,0.01,0.15,0.03,0.22,0.05c0.11,0.02,0.24,0.05,0.35,0.07
				c0.06,0.01,0.12,0.02,0.18,0.03c0.07,0.01,0.14,0.02,0.21,0.04c0.06,0.01,0.12,0.01,0.18,0.03c0.07,0.01,0.15,0.02,0.21,0.03
				c0.06,0.01,0.11,0.01,0.17,0.02c0.07,0.01,0.15,0.02,0.21,0.02c0.06,0.01,0.11,0.02,0.17,0.02c0.04,0,0.08,0.01,0.11,0.01
				c0.06,0.01,0.12,0.01,0.18,0.01c0.06,0.01,0.12,0.01,0.19,0.02c0.08,0.01,0.17,0.01,0.26,0.01c0.05,0,0.1,0.01,0.15,0.01h0.06
				c0.08,0,0.17,0.01,0.25,0.01c0.04,0,0.1,0.01,0.14,0.01c0.15,0,0.29,0.01,0.44,0.01c0.14,0,0.28,0,0.42-0.01
				c0.05,0,0.09,0,0.14-0.01c0.1,0,0.19-0.01,0.29-0.01c0.05,0,0.11-0.01,0.16-0.01c0.08-0.01,0.17-0.01,0.26-0.01
				c0.05-0.01,0.11-0.01,0.17-0.02c0.08-0.01,0.17-0.01,0.25-0.02c0.05-0.01,0.11-0.01,0.17-0.02c0.08-0.01,0.16-0.02,0.24-0.03
				c0.05-0.01,0.1-0.01,0.15-0.02c0.1-0.02,0.21-0.03,0.31-0.04c0.05-0.01,0.08-0.01,0.13-0.01c0.14-0.02,0.27-0.04,0.41-0.07
				c0.01,0,0.02-0.01,0.04-0.01c0.12-0.02,0.24-0.05,0.37-0.07c0.05-0.01,0.09-0.02,0.14-0.03c0.09-0.01,0.17-0.04,0.27-0.06
				c0.05-0.01,0.11-0.02,0.16-0.04c0.07-0.02,0.14-0.03,0.21-0.05c0.01,0,0.03-0.01,0.04-0.01c0.03-0.01,0.07-0.01,0.1-0.02
				l0.09-0.02c0.08-0.02,0.15-0.04,0.23-0.06c0.01,0,0.02-0.01,0.03-0.01c0.03-0.01,0.07-0.02,0.1-0.03
				c0.21-0.06,0.41-0.12,0.62-0.19l0.01-0.01C67.36,202.35,67.29,198.44,65.65,195.04"/>
			<path clip-path="url(#SVGID_16_)" fill="#00AED1" d="M68.03,187.06c0.08,0.32,0.13,0.65,0.17,0.98c0.01,0.06,0.01,0.12,0.01,0.18
				v0.02c0.08,0.85,0.01,1.71-0.18,2.57c0,0.01-0.01,0.02-0.01,0.03c-0.01,0.05-0.02,0.11-0.04,0.16c-0.01,0.03-0.02,0.06-0.02,0.09
				c-0.01,0.03-0.01,0.06-0.02,0.09c-0.01,0.05-0.03,0.11-0.04,0.16c0,0.01-0.01,0.01-0.01,0.03c-0.27,0.89-0.69,1.72-1.24,2.46
				c-0.01,0.01-0.02,0.03-0.03,0.04c-0.05,0.07-0.1,0.13-0.15,0.2c-0.02,0.03-0.05,0.07-0.08,0.1c-0.02,0.03-0.05,0.05-0.07,0.08
				c-0.21,0.26-0.44,0.5-0.68,0.73c1.63,3.39,1.7,7.3-0.19,10.57c1.1-0.37,2.17-0.84,3.18-1.41c0.01-0.01,0.02-0.01,0.02-0.01
				c0.09-0.05,0.18-0.11,0.27-0.16c0.02-0.02,0.04-0.03,0.07-0.04c0.01,0,0.01-0.01,0.01-0.01c0.02-0.02,0.05-0.02,0.06-0.04
				c0.03-0.01,0.05-0.03,0.08-0.05c0.06-0.04,0.13-0.08,0.19-0.12c0.05-0.03,0.1-0.07,0.15-0.1c0.06-0.04,0.12-0.08,0.18-0.12
				c0.05-0.04,0.1-0.07,0.15-0.11c0.06-0.04,0.11-0.08,0.17-0.12c0.05-0.04,0.1-0.07,0.15-0.11c0.06-0.04,0.11-0.08,0.18-0.13
				c0.04-0.04,0.1-0.07,0.14-0.11c0.06-0.05,0.12-0.09,0.18-0.14c0.05-0.04,0.09-0.07,0.14-0.11c0.1-0.08,0.2-0.16,0.3-0.24
				c0.05-0.04,0.09-0.08,0.13-0.12c0.05-0.04,0.11-0.1,0.17-0.14c0.05-0.05,0.1-0.08,0.15-0.13c0.05-0.05,0.1-0.09,0.15-0.14
				c0.05-0.05,0.1-0.09,0.15-0.14c0.04-0.05,0.1-0.09,0.14-0.14c0.04-0.05,0.1-0.09,0.14-0.14l0.14-0.14
				c0.05-0.05,0.1-0.1,0.15-0.15c0.04-0.05,0.09-0.09,0.14-0.14c0.04-0.05,0.09-0.1,0.14-0.14c0.04-0.04,0.08-0.09,0.13-0.14
				c0.05-0.05,0.09-0.1,0.14-0.15c0.05-0.05,0.1-0.11,0.15-0.17c0.08-0.09,0.16-0.18,0.24-0.27c0.04-0.04,0.08-0.09,0.11-0.14
				c0.04-0.05,0.09-0.11,0.14-0.16c0.04-0.05,0.08-0.09,0.11-0.14c0.05-0.05,0.09-0.12,0.13-0.17c0.04-0.04,0.07-0.09,0.11-0.14
				c0.04-0.06,0.08-0.11,0.13-0.18c0.04-0.05,0.07-0.09,0.11-0.14c0.02-0.03,0.04-0.06,0.06-0.09c0.04-0.05,0.07-0.1,0.11-0.15
				c0.04-0.05,0.07-0.1,0.11-0.15c0.04-0.07,0.09-0.15,0.14-0.21c0.03-0.04,0.05-0.08,0.08-0.12c0.01-0.02,0.02-0.04,0.03-0.05
				c0.04-0.07,0.09-0.14,0.14-0.21c0.02-0.04,0.05-0.08,0.08-0.12c0.08-0.12,0.15-0.25,0.22-0.37c0.07-0.12,0.14-0.25,0.21-0.37
				c0.02-0.04,0.04-0.08,0.07-0.12c0.04-0.08,0.09-0.17,0.14-0.25c0.02-0.04,0.04-0.1,0.07-0.14c0.04-0.08,0.08-0.15,0.11-0.24
				c0.02-0.05,0.05-0.1,0.08-0.15c0.04-0.07,0.07-0.15,0.11-0.23c0.02-0.05,0.05-0.1,0.07-0.15c0.04-0.08,0.07-0.16,0.11-0.24
				c0.02-0.04,0.05-0.1,0.06-0.14c0.04-0.09,0.07-0.18,0.11-0.27c0.02-0.04,0.03-0.08,0.05-0.12c0.05-0.13,0.1-0.26,0.14-0.39
				c0.01-0.01,0.01-0.02,0.01-0.03c0.04-0.12,0.08-0.23,0.12-0.36c0.02-0.04,0.03-0.09,0.05-0.13c0.03-0.08,0.05-0.18,0.08-0.26
				c0.02-0.05,0.03-0.11,0.05-0.15c0.02-0.07,0.04-0.14,0.06-0.21c0.01-0.01,0.01-0.03,0.02-0.05c0.01-0.03,0.02-0.06,0.03-0.1
				c0.01-0.03,0.01-0.06,0.02-0.09c0.02-0.08,0.04-0.15,0.06-0.23c0-0.01,0.01-0.02,0.01-0.03c0.01-0.03,0.01-0.07,0.02-0.1
				c0.05-0.21,0.1-0.42,0.15-0.63v-0.01C75.22,189.25,71.81,187.35,68.03,187.06"/>
			<path clip-path="url(#SVGID_16_)" fill="#027C68" d="M62.37,181.02c0.31,0.09,0.62,0.21,0.93,0.34c0.05,0.02,0.12,0.05,0.17,0.08
				c0.01,0,0.02,0.01,0.02,0.01c0.78,0.37,1.5,0.84,2.14,1.44c0.01,0.01,0.02,0.01,0.02,0.02c0.04,0.04,0.08,0.07,0.12,0.11
				c0.02,0.02,0.05,0.05,0.07,0.07c0.02,0.02,0.05,0.05,0.07,0.07c0.04,0.04,0.08,0.08,0.11,0.11c0.01,0.01,0.01,0.01,0.02,0.02
				c0.64,0.68,1.15,1.47,1.52,2.3c0.01,0.02,0.01,0.03,0.02,0.05c0.03,0.08,0.06,0.15,0.09,0.23c0.02,0.04,0.03,0.08,0.05,0.12
				c0.01,0.03,0.02,0.07,0.04,0.11c0.11,0.32,0.21,0.64,0.29,0.96c3.77,0.28,7.19,2.18,9.08,5.45c0.24-1.13,0.36-2.29,0.37-3.46
				v-0.03v-0.31v-0.08v-0.01v-0.08v-0.09c0-0.08-0.01-0.15-0.01-0.23c0-0.06-0.01-0.12-0.01-0.18c-0.01-0.07-0.01-0.14-0.02-0.21
				c-0.01-0.06-0.01-0.12-0.01-0.18c-0.01-0.07-0.01-0.15-0.01-0.21c-0.01-0.06-0.01-0.12-0.02-0.18c-0.01-0.07-0.02-0.15-0.02-0.21
				c-0.01-0.06-0.01-0.12-0.02-0.18c-0.01-0.07-0.02-0.15-0.03-0.22c-0.01-0.05-0.01-0.11-0.02-0.17c-0.02-0.12-0.04-0.25-0.06-0.37
				c-0.01-0.05-0.02-0.11-0.03-0.17c-0.02-0.08-0.02-0.15-0.04-0.22c-0.01-0.06-0.02-0.13-0.04-0.19c-0.02-0.07-0.02-0.13-0.04-0.2
				c-0.01-0.06-0.03-0.13-0.04-0.19c-0.02-0.06-0.03-0.13-0.04-0.19c-0.02-0.07-0.03-0.13-0.05-0.2c-0.01-0.06-0.03-0.12-0.05-0.18
				c-0.01-0.07-0.03-0.13-0.05-0.2c-0.01-0.06-0.03-0.12-0.05-0.18c-0.01-0.07-0.04-0.13-0.05-0.2c-0.01-0.06-0.04-0.12-0.05-0.18
				c-0.02-0.07-0.04-0.13-0.06-0.2c-0.02-0.07-0.04-0.14-0.07-0.21c-0.04-0.11-0.08-0.23-0.11-0.33c-0.02-0.05-0.04-0.11-0.06-0.17
				c-0.02-0.07-0.05-0.14-0.07-0.2c-0.02-0.05-0.05-0.11-0.06-0.17c-0.02-0.07-0.05-0.14-0.08-0.2c-0.02-0.05-0.05-0.11-0.07-0.16
				c-0.03-0.07-0.05-0.14-0.08-0.2c-0.02-0.05-0.05-0.11-0.07-0.16c-0.01-0.03-0.03-0.07-0.05-0.1c-0.02-0.05-0.05-0.11-0.08-0.17
				c-0.02-0.05-0.05-0.11-0.08-0.17c-0.04-0.08-0.08-0.15-0.11-0.23c-0.02-0.04-0.05-0.09-0.07-0.14c-0.01-0.01-0.01-0.04-0.03-0.05
				c-0.04-0.08-0.08-0.15-0.11-0.22c-0.02-0.05-0.05-0.08-0.07-0.13c-0.07-0.13-0.14-0.25-0.21-0.38c-0.07-0.12-0.14-0.24-0.22-0.36
				c-0.02-0.04-0.05-0.08-0.08-0.11c-0.05-0.08-0.1-0.16-0.15-0.24c-0.03-0.05-0.06-0.09-0.09-0.14c-0.04-0.07-0.1-0.14-0.15-0.22
				c-0.03-0.04-0.06-0.09-0.1-0.14c-0.04-0.07-0.1-0.14-0.14-0.21c-0.03-0.05-0.07-0.09-0.1-0.14c-0.05-0.07-0.1-0.14-0.15-0.21
				c-0.03-0.04-0.06-0.08-0.1-0.13c-0.06-0.08-0.11-0.15-0.17-0.22c-0.03-0.04-0.05-0.07-0.08-0.11c-0.08-0.11-0.17-0.21-0.26-0.32
				c-0.01-0.01-0.02-0.01-0.02-0.03c-0.08-0.1-0.16-0.19-0.24-0.28c-0.03-0.04-0.06-0.07-0.09-0.11c-0.06-0.07-0.12-0.14-0.18-0.2
				c-0.04-0.04-0.08-0.08-0.11-0.11c-0.05-0.05-0.1-0.11-0.15-0.15c-0.01-0.01-0.02-0.02-0.03-0.03c-0.02-0.02-0.05-0.05-0.07-0.07
				c-0.02-0.02-0.05-0.05-0.07-0.07c-0.05-0.05-0.11-0.11-0.17-0.17c-0.01-0.01-0.02-0.02-0.02-0.02c-0.02-0.02-0.05-0.04-0.08-0.07
				c-0.15-0.15-0.31-0.3-0.48-0.44h-0.01C67.86,175.9,64.5,177.91,62.37,181.02"/>
			<path clip-path="url(#SVGID_16_)" fill="#00B199" d="M54.28,182.96c0.24-0.23,0.49-0.43,0.76-0.63c0.05-0.04,0.1-0.07,0.15-0.11
				c0.01-0.01,0.02-0.01,0.02-0.02c0.7-0.49,1.48-0.87,2.32-1.13c0.01,0,0.01-0.01,0.03-0.01c0.05-0.01,0.11-0.03,0.16-0.04
				c0.03-0.01,0.06-0.01,0.09-0.02c0.03-0.01,0.06-0.02,0.09-0.02c0.05-0.02,0.11-0.02,0.16-0.04c0.01,0,0.02-0.01,0.03-0.01
				c0.91-0.21,1.85-0.26,2.75-0.16c0.01,0,0.04,0,0.05,0.01c0.08,0.01,0.16,0.02,0.24,0.03c0.04,0.01,0.08,0.01,0.12,0.02
				c0.04,0.01,0.07,0.01,0.11,0.01c0.33,0.06,0.65,0.14,0.97,0.23c2.13-3.12,5.49-5.13,9.27-5.13c-0.87-0.77-1.81-1.46-2.82-2.05
				c-0.01-0.01-0.01-0.01-0.02-0.01c-0.09-0.05-0.18-0.11-0.27-0.15c-0.02-0.01-0.04-0.02-0.07-0.04c-0.01,0-0.01-0.01-0.01-0.01
				c-0.02-0.02-0.05-0.02-0.07-0.04c-0.03-0.01-0.05-0.03-0.08-0.04c-0.07-0.04-0.14-0.07-0.2-0.11c-0.05-0.03-0.11-0.05-0.16-0.08
				c-0.06-0.03-0.13-0.07-0.19-0.1c-0.05-0.03-0.11-0.05-0.17-0.08c-0.06-0.03-0.13-0.06-0.19-0.09c-0.05-0.02-0.11-0.05-0.17-0.08
				c-0.07-0.03-0.13-0.06-0.2-0.08c-0.05-0.02-0.11-0.04-0.17-0.07c-0.07-0.03-0.14-0.06-0.2-0.08c-0.05-0.02-0.11-0.05-0.16-0.07
				c-0.11-0.05-0.24-0.09-0.35-0.14c-0.05-0.02-0.11-0.04-0.16-0.06c-0.07-0.02-0.14-0.05-0.21-0.08c-0.06-0.02-0.12-0.04-0.18-0.06
				c-0.06-0.02-0.13-0.04-0.19-0.06c-0.06-0.02-0.13-0.04-0.19-0.06s-0.12-0.04-0.19-0.06c-0.06-0.02-0.13-0.04-0.19-0.05
				c-0.06-0.01-0.12-0.04-0.18-0.05c-0.07-0.02-0.13-0.04-0.2-0.05c-0.06-0.01-0.12-0.03-0.18-0.05c-0.07-0.01-0.13-0.03-0.2-0.04
				c-0.06-0.01-0.12-0.03-0.18-0.04c-0.07-0.02-0.13-0.03-0.2-0.05c-0.08-0.01-0.15-0.03-0.22-0.05c-0.11-0.02-0.24-0.04-0.35-0.07
				c-0.06-0.01-0.11-0.02-0.17-0.03c-0.07-0.01-0.14-0.02-0.21-0.04c-0.06-0.01-0.12-0.01-0.18-0.03c-0.07-0.01-0.14-0.02-0.21-0.03
				c-0.06-0.01-0.11-0.01-0.17-0.02c-0.07-0.01-0.14-0.01-0.21-0.02c-0.06-0.01-0.11-0.01-0.18-0.01c-0.04,0-0.08-0.01-0.11-0.01
				c-0.06-0.01-0.12-0.01-0.18-0.01c-0.06-0.01-0.12-0.01-0.19-0.01c-0.08-0.01-0.17-0.01-0.26-0.02c-0.05,0-0.1-0.01-0.15-0.01
				h-0.06c-0.08,0-0.17-0.01-0.25-0.01c-0.05,0-0.1-0.01-0.15-0.01c-0.14,0-0.29-0.01-0.43-0.01s-0.28,0-0.42,0.01
				c-0.05,0-0.09,0-0.14,0.01c-0.1,0-0.19,0.01-0.29,0.01c-0.05,0-0.11,0.01-0.16,0.01c-0.08,0.01-0.18,0.01-0.26,0.02
				c-0.05,0.01-0.11,0.01-0.17,0.01c-0.08,0.01-0.17,0.01-0.25,0.02c-0.05,0.01-0.11,0.01-0.17,0.01c-0.08,0.01-0.16,0.02-0.24,0.03
				c-0.05,0.01-0.1,0.01-0.15,0.02c-0.1,0.02-0.21,0.03-0.31,0.04c-0.05,0.01-0.08,0.01-0.13,0.01c-0.14,0.02-0.27,0.05-0.41,0.07
				c-0.01,0-0.02,0.01-0.04,0.01c-0.12,0.02-0.24,0.04-0.37,0.07c-0.05,0.01-0.09,0.02-0.14,0.03c-0.09,0.01-0.17,0.04-0.26,0.06
				c-0.05,0.01-0.11,0.02-0.16,0.04c-0.07,0.01-0.14,0.03-0.21,0.05c-0.02,0-0.03,0.01-0.05,0.01c-0.03,0.01-0.07,0.01-0.1,0.02
				c-0.03,0.01-0.06,0.01-0.09,0.02c-0.08,0.02-0.15,0.04-0.23,0.06c-0.01,0-0.02,0.01-0.03,0.01c-0.03,0.01-0.07,0.02-0.1,0.03
				c-0.21,0.06-0.41,0.12-0.62,0.19l-0.01,0.01C52.58,175.65,52.64,179.56,54.28,182.96"/>
		</g>
	</g>
</g>
</svg>
