<?xml version="1.0" encoding="UTF-8"?>
<svg width="16px" height="11px" viewBox="0 0 16 11" version="1.1" xmlns="http://www.w3.org/2000/svg" xmlns:xlink="http://www.w3.org/1999/xlink">
    <!-- Generator: Sketch 51.3 (57544) - http://www.bohemiancoding.com/sketch -->
    <title>UI Icon/visibility-on/$hover-primary</title>
    <desc>Created with Sketch.</desc>
    <defs></defs>
    <g id="UI-Icon/visibility-on/$hover-primary" stroke="none" stroke-width="1" fill="none" fill-rule="evenodd">
        <path d="M8,7.46546517 C9.1045695,7.46546517 10,6.57003467 10,5.46546517 C10,4.36089567 9.1045695,3.46546517 8,3.46546517 C6.8954305,3.46546517 6,4.36089567 6,5.46546517 C6,6.57003467 6.8954305,7.46546517 8,7.46546517 Z M8,8.46546517 C6.34314575,8.46546517 5,7.12231942 5,5.46546517 C5,3.80861092 6.34314575,2.46546517 8,2.46546517 C9.65685425,2.46546517 11,3.80861092 11,5.46546517 C11,7.12231942 9.65685425,8.46546517 8,8.46546517 Z" id="Oval-20" fill="#30588C" fill-rule="nonzero"></path>
        <path d="M11.1902198,8.69652873 C13.1663611,6.72038749 13.7308519,4.05909655 12.8444855,0.582539963 C9.43577707,-0.240215235 6.80520053,0.353625988 4.82625882,2.3325677 C2.84789702,4.3109295 2.27501332,6.91878843 3.13848579,10.2883098 C6.57606584,11.2156185 9.21468295,10.6720656 11.1902198,8.69652873 Z M4.11915204,1.62546092 C6.47617464,-0.731561682 9.65528681,-1.35317798 13.6564885,-0.23938798 C14.8407365,3.83227175 14.2543492,7.04661291 11.8973266,9.40363551 C9.54030402,11.7606581 6.34887894,12.3241293 2.32305138,11.0940492 C1.16342921,7.13867961 1.76212943,3.98248353 4.11915204,1.62546092 Z" id="Rectangle-17" fill="#30588C" fill-rule="nonzero" transform="translate(8.000000, 5.475630) rotate(45.000000) translate(-8.000000, -5.475630) "></path>
    </g>
</svg>